<svg id="Capa_1" enable-background="new 0 0 512 512" height="512" viewBox="0 0 512 512" width="512" xmlns="http://www.w3.org/2000/svg"><g><g><path d="m420.829 10.302c0-5.69-4.612-10.302-10.302-10.302h-72.113c-45.516 0-82.414 36.898-82.414 82.414h92.717c39.826 0 72.112-32.285 72.112-72.112z" fill="#e8899e"/></g><g><path d="m183.887 410.226-10.302 62.964 10.302 38.81h144.225l10.302-38.81-10.302-62.964c-20.361-14.453-45.243-22.955-72.113-22.955s-51.751 8.502-72.112 22.955z" fill="#9aa3b1"/></g><g><path d="m295.774 393.77c-12.493-4.203-25.863-6.499-39.774-6.499-26.87 0-51.752 8.502-72.113 22.955l-10.302 62.964 10.302 38.81h26.904c0-54.862 35.642-101.59 84.983-118.23z" fill="#7e8b9e"/></g><g><path d="m328.113 410.226v101.774h29.974c12.945 0 22.765-11.815 20.235-24.511-6.33-31.766-24.729-59.176-50.209-77.263z" fill="#4e5660"/></g><g><path d="m183.887 410.226v101.774h-29.974c-12.945 0-22.765-11.815-20.235-24.511 6.33-31.766 24.729-59.176 50.209-77.263z" fill="#383c43"/></g><g><path d="m256 442.284c23.155 0 41.927-18.771 41.927-41.927 0-2.029-.152-4.021-.431-5.973-2.476-.876-4.981-1.677-7.523-2.395-10.801-3.068-22.197-4.719-33.973-4.719-14.541 0-28.507 2.512-41.495 7.111-.279 1.953-.431 3.946-.431 5.976-.001 23.156 18.771 41.927 41.926 41.927z" fill="#4e5660"/></g><g><path d="m235.843 437.125c14.995-19.909 35.802-35.206 59.877-43.338-1.898-.64-3.809-1.25-5.746-1.798-10.801-3.068-22.197-4.719-33.973-4.719-14.541 0-28.507 2.512-41.495 7.111-.279 1.953-.431 3.946-.431 5.976-.002 15.849 8.794 29.64 21.768 36.768z" fill="#383c43"/></g><g><path d="m127.227 470.847h77.264c11.379 0 20.604-9.225 20.604-20.604v-72.113h-46.358c-39.827 0-72.113 32.286-72.113 72.113 0 11.38 9.224 20.604 20.603 20.604z" fill="#c6c6c6"/></g><g><path d="m384.773 470.847h-77.264c-11.379 0-20.604-9.225-20.604-20.604v-72.113h46.358c39.827 0 72.113 32.286 72.113 72.113 0 11.38-9.224 20.604-20.603 20.604z" fill="#c6c6c6"/></g><g><path d="m374.471 160.003c-27.309-35.508-70.213-58.398-118.471-58.398s-91.162 22.89-118.471 58.398v181.957c27.309 35.508 70.213 58.398 118.471 58.398s91.162-22.89 118.471-58.398z" fill="#ffd4be"/></g><g><path d="m191.667 222.519v-106.371c-21.329 10.198-39.866 25.298-54.137 43.855v181.957c27.309 35.508 70.213 58.398 118.471 58.398 10.596 0 20.933-1.105 30.904-3.203-79.367-28.344-95.238-71.619-95.238-174.636z" fill="#ffbf9e"/></g><g><g><g><ellipse cx="174.042" cy="301.454" fill="#eda1ab" rx="30.241" ry="24.082"/></g><g><ellipse cx="337.958" cy="301.454" fill="#eda1ab" rx="30.241" ry="24.082"/></g></g><g><path d="m191.667 285.771c-4.142 0-7.5-3.358-7.5-7.5v-12.362c0-4.142 3.358-7.5 7.5-7.5s7.5 3.358 7.5 7.5v12.362c0 4.142-3.358 7.5-7.5 7.5z" fill="#4e5660"/></g><g><path d="m320.333 285.771c-4.142 0-7.5-3.358-7.5-7.5v-12.362c0-4.142 3.358-7.5 7.5-7.5s7.5 3.358 7.5 7.5v12.362c0 4.142-3.357 7.5-7.5 7.5z" fill="#4e5660"/></g><g><path d="m256 293.13c-8.667 0-16.911-3.754-22.615-10.299-2.722-3.123-2.396-7.86.726-10.582s7.86-2.397 10.582.726c2.855 3.276 6.977 5.155 11.307 5.155s8.452-1.879 11.307-5.155c2.72-3.123 7.458-3.448 10.582-.726 3.123 2.721 3.448 7.459.726 10.582-5.704 6.545-13.948 10.299-22.615 10.299z" fill="#4e5660"/></g></g><g><path d="m316.367 29.599c15.117-18.087 37.838-29.599 63.254-29.599h-41.207c-45.516 0-82.414 36.898-82.414 82.414h92.717c12.955 0 25.102-3.434 35.61-9.414-18.916-19.189-42.079-34.176-67.96-43.401z" fill="#e26e7e"/></g><g><path d="m106.624 199.472v123.622c0 42.671 34.592 77.264 77.264 77.264 11.379 0 20.604-9.225 20.604-20.604s-9.225-20.604-20.604-20.604c-14.224 0-25.755-11.531-25.755-25.755v-167.678h195.734v167.679c0 14.224-11.531 25.754-25.755 25.754-11.379 0-20.604 9.225-20.604 20.604s9.225 20.604 20.604 20.604c42.671 0 77.263-34.592 77.263-77.263v-123.623c0-82.498-66.878-149.376-149.376-149.376-82.497 0-149.375 66.878-149.375 149.376z" fill="#9aa3b1"/></g><g><path d="m256 50.096c-82.498 0-149.376 66.878-149.376 149.376v41.506c13.646 7.911 29.482 12.446 46.358 12.446h5.151v-53.952-33.755h195.734v33.755 53.952h5.151c16.876 0 32.712-4.535 46.358-12.446v-41.506c0-82.498-66.878-149.376-149.376-149.376z" fill="#7e8b9e"/></g><g><path d="m256 0c-11.379 0-20.604 9.225-20.604 20.604v51.476h41.207v-51.476c0-11.379-9.224-20.604-20.603-20.604z" fill="#c6c6c6"/></g><g><path d="m256 72.08c-11.379 0-20.604-9.225-20.604-20.604v88.628h41.207v-88.628c0 11.379-9.224 20.604-20.603 20.604z" fill="#9aa3b1"/></g><g><path d="m359.018 222.519h-206.036c-34.137 0-61.811-27.674-61.811-61.811 0-34.137 27.674-61.811 61.811-61.811h206.036c34.137 0 61.811 27.674 61.811 61.811 0 34.137-27.674 61.811-61.811 61.811z" fill="#c6c6c6"/></g><g><circle cx="152.982" cy="160.708" fill="#9aa3b1" r="20.604"/></g><g><circle cx="221.661" cy="160.708" fill="#9aa3b1" r="20.604"/></g><g><circle cx="290.339" cy="160.708" fill="#9aa3b1" r="20.604"/></g><g><circle cx="359.018" cy="160.708" fill="#9aa3b1" r="20.604"/></g></g></svg>