<svg id="Capa_1" enable-background="new 0 0 512 512" height="512" viewBox="0 0 512 512" width="512" xmlns="http://www.w3.org/2000/svg"><g><path d="m411.424 383.611c-12.077-18.954-4.017-30.892 0-45.602s2.436-27.715-4.821-45.602c-10.444-25.743-3.661-41.264.803-62.519 8.034-38.247-14.461-64.726-14.461-64.726l-136.945-31.516v294.429l163.213.159c4.44-15.023 1.061-30.734-7.789-44.623z" fill="#c38c66"/><path d="m100.576 383.611c12.077-18.954 4.017-30.892 0-45.602s-2.436-27.715 4.821-45.602c10.444-25.743 3.661-41.264-.803-62.519-8.034-38.247 14.461-64.726 14.461-64.726l136.945-31.516v294.429l-163.213.159c-4.44-15.023-1.061-30.734 7.789-44.623z" fill="#b57f5f"/><path d="m329.882 402.415c-9.67-3.626-16.076-12.87-16.076-23.197v-5.444h-115.612v5.444c0 10.327-6.406 19.571-16.076 23.197l-49.989 18.746 111.538 90.839h26.667l109.538-90.839z" fill="#f6d190"/><path d="m313.806 346.839h-115.612v26.936c17.264 9.132 36.916 14.354 57.806 14.354s40.542-5.222 57.806-14.354z" fill="#ecbd83"/><path d="m363.355 412.903-78.668 21.455c-7.186 1.96-12.17 8.486-12.17 15.934v45.192c0 9.122-7.395 16.516-16.516 16.516-9.122 0-16.516-7.395-16.516-16.516v-45.192c0-7.448-4.985-13.974-12.17-15.934l-78.668-21.455v74.323l49.547 24.774h115.613l49.548-16.516z" fill="#966a5b"/><path d="m256 355.097c-59.29 0-92-48.064-92-107.355v-115.613l120.5 3.371 78.855 44.905v67.337c0 59.29-48.065 107.355-107.355 107.355z" fill="#ffe09f"/><path d="m148.645 132.129v128.357c1.078.529 1.998 1.455 2.51 2.851 4.685 12.787 18.868 15.338 31.556 15.858-.681-4.881-1.034-9.868-1.034-14.938v-70.896c0-12.296 8.989-22.865 21.169-24.547 17.301-2.39 35.114-3.654 53.153-3.654 37.632 0 74.35 5.382 107.355 15.243v-48.276h-214.709z" fill="#f6d190"/><path d="m338.581 272.516h-37.505-36.82l-8.254-8.258-8.26 8.258h-65.686l-9.056 23.817c14.244 42.587 35.621 74.333 83 74.333 5.67 0 11.238.507 16.67-.34 51.374-8.009 90.685-52.448 90.685-106.068v-16.516c0 13.682-11.092 24.774-24.774 24.774z" fill="#966a5b"/><path d="m256 371.613c5.632 0 11.273-.451 16.67-1.287-48.759-7.549-86.807-47.923-90.615-97.81h-8.636c-13.682 0-24.774-11.092-24.774-24.774v16.516c0 59.29 48.065 107.355 107.355 107.355z" fill="#785353"/><path d="m148.653 264.258c-2.581 0-5.113-1.202-6.726-3.46-2.653-3.71-1.79-8.867 1.919-11.52l173.419-123.871c3.702-2.649 8.871-1.79 11.516 1.923 2.653 3.71 1.79 8.867-1.919 11.52l-173.418 123.872c-1.452 1.036-3.129 1.536-4.791 1.536z" fill="#4b3f4e"/><path d="m393 95c-41.29-33.032-37.903-86-137-86s-97.71 51.968-139 85c-29.881 23.905-75.98 47.874-76 103l14.054 11.455c46.877-36.368 119.454-59.81 200.946-59.81 81.486 0 154.068 23.446 200.946 59.81l17.054-9.51c-.02-55.127-51.119-80.04-81-103.945z" fill="#5d5360"/><path d="m309.242 108.226-34.774-17.387 34.774-17.387c4.081-2.04 5.734-7 3.694-11.081-2.048-4.081-7.008-5.734-11.081-3.694l-45.855 22.928-45.855-22.927c-4.073-2.04-9.04-.387-11.081 3.694-2.04 4.081-.387 9.04 3.694 11.081l34.774 17.387-34.774 17.387c-4.081 2.04-5.734 7-3.694 11.081 1.452 2.895 4.363 4.565 7.395 4.565 1.242 0 2.5-.278 3.685-.871l45.856-22.929 45.855 22.927c1.185.593 2.444.871 3.685.871 3.032 0 5.944-1.669 7.395-4.565 2.041-4.08.388-9.04-3.693-11.08z" fill="#ffd064"/><path d="m404.645 90.839c-41.29-33.033-49.548-90.839-148.645-90.839s-107.355 57.806-148.645 90.839c-29.881 23.905-82.838 52.979-82.858 108.105-.005 13.682 16.277 20.968 26.887 12.329 1.18-.961 2.455-1.875 3.67-2.819v-6.648c.012-28.297 22.78-47.381 54.947-71.256 5.858-4.344 11.419-8.482 16.392-12.481 14.505-11.657 25.401-25.27 35.012-37.283 22.183-27.722 38.211-47.754 94.595-47.754s72.412 20.032 94.596 47.754c9.61 12.014 20.507 25.627 35.012 37.283 4.973 3.999 10.533 8.137 16.392 12.481 32.166 23.875 54.934 42.959 54.947 71.256v6.648c1.215.944 2.489 1.857 3.67 2.819 10.61 8.639 26.892 1.353 26.887-12.329-.021-55.126-52.978-84.201-82.859-108.105z" fill="#ffe07d"/><circle cx="210.581" cy="210.581" fill="#5d5360" r="28.903"/><path d="m155.294 411.901c-3.649-8.513-13.583-12.362-22.015-8.53l-46.428 21.103c-17.689 8.04-29.045 25.677-29.045 45.107v25.902c0 9.122 7.395 16.516 16.516 16.516h123.871z" fill="#5d5360"/><circle cx="256" cy="90.839" fill="#ffe07d" r="24.774"/><g fill="#785353"><path d="m256 264.258h-24.774c-13.682 0-24.774 11.092-24.774 24.774h24.774c13.682 0 24.774-11.092 24.774-24.774z"/><path d="m256 264.258h24.774c13.682 0 24.774 11.092 24.774 24.774h-24.774c-13.682 0-24.774-11.092-24.774-24.774z"/><path d="m272.516 313.806h-33.032c-4.565 0-8.258-3.698-8.258-8.258s3.694-8.258 8.258-8.258h33.032c4.565 0 8.258 3.698 8.258 8.258 0 4.561-3.693 8.258-8.258 8.258z"/></g><path d="m305.548 239.484c-4.565 0-8.258-3.698-8.258-8.258v-8.258c0-4.56 3.694-8.258 8.258-8.258 4.565 0 8.258 3.698 8.258 8.258v8.258c0 4.56-3.693 8.258-8.258 8.258z" fill="#6e4848"/><path d="m313.806 206.452h-16.516c-4.565 0-8.258-3.698-8.258-8.258s3.694-8.258 8.258-8.258h16.516c4.565 0 8.258 3.698 8.258 8.258.001 4.56-3.693 8.258-8.258 8.258z" fill="#966a5b"/><path d="m356.706 411.901c3.648-8.513 13.583-12.362 22.015-8.53l46.427 21.103c17.689 8.04 29.045 25.677 29.045 45.108v25.902c0 9.122-7.395 16.516-16.516 16.516h-123.871z" fill="#5d5360"/></g></svg>