<svg id="Capa_1" enable-background="new 0 0 512 512" height="512" viewBox="0 0 512 512" width="512" xmlns="http://www.w3.org/2000/svg"><g><g><path d="m435.455 365.348-30.242-7.5-298.295-.046-30.383 7.54c-26.752 6.64-45.535 30.638-45.535 58.18v80.978h450v-80.97c0-27.545-18.788-51.546-45.545-58.182z" fill="#a7eed4"/><path d="m437.369 365.867c14.537 11.079 23.631 28.514 23.631 47.672v90.961h20v-80.97c0-26.882-17.898-50.379-43.631-57.663z" fill="#69bdc6"/><path d="m406.312 376.051c0-38.179-14.273-73.022-37.768-99.512l2.649 31.341c2.849 39.847-20.956 62.806-58.438 76.714l-57.755 21.43-56.189-21.222c-37.201-14.05-60.761-36.842-57.951-76.477l2.657-31.715c-23.457 26.482-37.704 61.296-37.704 99.441 0 15.686 2.412 30.809 6.879 45.023h48.433l-25 29.974v53.452h239.875v-53.453l-25-29.974h48.433c4.467-14.213 6.879-29.336 6.879-45.022z" fill="#a7eed4"/><g fill="#69bdc6"><path d="m368.544 276.538 2.649 31.341c.068.944.106 1.87.144 2.795 9.589 19.763 14.976 41.939 14.976 65.376 0 15.686-2.412 30.809-6.879 45.023h20c4.467-14.214 6.879-29.336 6.879-45.023-.001-38.178-14.273-73.021-37.769-99.512z"/><path d="m331 421.073 25 29.974v53.453h20v-53.453l-25-29.974z"/></g><path d="m255 406.024-51.438-19.427v117.903h105v-118.351z" fill="#fef2e2"/><path d="m308.562 504.5v-76.495l-52.5 29.973-52.5-29.973v76.495z" fill="#69bdc6"/><path d="m346 157.306h-179.875v-119.806c0-16.569 13.431-30 30-30h119.875c16.569 0 30 13.431 30 30z" fill="#a7eed4"/><path d="m316 7.5h-20c16.569 0 30 13.42 30 29.974v119.832h20v-119.832c0-16.554-13.431-29.974-30-29.974z" fill="#69bdc6"/><path d="m166.125 104.352h179.875v52.953h-179.875z" fill="#ff905b"/><path d="m326 104.352h20v52.953h-20z" fill="#ff6a47"/><path d="m405.994 186.519c-.43-32.066-26.563-58.41-58.653-59.11-13.96-.305-26.861 4.159-37.193 11.872-15.643 11.678-34.594 18.087-54.122 18.087h-.054c-19.528 0-38.479-6.408-54.121-18.086-10.332-7.713-23.233-12.177-37.193-11.873-32.067.7-58.191 27.008-58.652 59.051-.482 33.512 26.563 60.829 59.994 60.829h180c5.179 0 10.205-.656 15-1.889 26.132-6.72 45.374-30.587 44.994-58.881z" fill="#a7eed4"/><path d="m347.341 127.409c-3.874-.084-7.662.211-11.341.828 28.005 4.755 49.603 29.155 49.994 58.282.38 28.294-18.862 52.161-44.994 58.881-4.794 1.233-9.82 1.889-15 1.889h20c5.179 0 10.205-.656 15-1.889 26.132-6.72 45.374-30.587 44.994-58.881-.43-32.067-26.563-58.41-58.653-59.11z" fill="#69bdc6"/><path d="m198.811 384.802 56.189 21.222 57.756-21.431c37.482-13.908 61.286-36.867 58.438-76.714l-9.352-110.644c-26.7-6.098-64.22-9.894-105.779-9.894-41.621 0-79.191 3.807-105.899 9.92l-9.304 111.063c-2.81 39.636 20.75 62.428 57.951 76.478z" fill="#ffc277"/><path d="m371.193 307.879-9.352-110.644c-6.249-1.427-13.098-2.727-20.446-3.882l10.826 122.987c2.342 32.761-13.342 54.1-39.822 68.385l.356-.132c37.483-13.907 61.287-36.867 58.438-76.714z" fill="#ff905b"/><path d="m212.827 315.925c5.456-18.498 22.571-32.004 42.852-32.004 20.433 0 37.649 13.709 42.97 32.419 22.107-13.991 36.797-38.629 36.797-66.71v-57.169c-22.885-3.239-50.134-5.12-79.383-5.12s-56.498 1.88-79.383 5.12v57.169c-.001 27.806 14.402 52.235 36.147 66.295z" fill="#ffceb7"/><path d="m315.446 190.096v52.541c0 22.794-9.68 43.319-25.149 57.723 3.791 4.643 6.668 10.06 8.352 15.981 22.107-13.991 36.797-38.629 36.797-66.71v-57.169c-6.345-.899-13.035-1.688-20-2.366z" fill="#ffaa81"/></g><g><path d="m437.26 358.069-25.316-6.278c-.784-5.067-1.807-10.09-3.08-15.043l-14.527 3.734c2.97 11.554 4.476 23.521 4.476 35.569 0 12.746-1.679 25.343-4.995 37.522h-58.84l33.522 40.191v43.236h-52.438v-105.643c21.003-7.889 36.331-17.907 46.821-30.621 11.974-14.511 17.286-32.475 15.783-53.489l-.421-4.978c4.678 7.713 8.616 15.857 11.768 24.381l14.069-5.202c-6.502-17.584-16.013-33.709-28.271-47.976l-2.082-24.626c24.36-10.947 40.127-35.336 39.764-62.428-.235-17.464-7.206-33.978-19.63-46.499-10.992-11.078-25.148-17.907-40.364-19.6v-82.845c.001-20.663-16.821-37.474-37.499-37.474h-119.875c-20.678 0-37.5 16.811-37.5 37.474v82.827c-13.712 1.521-26.753 7.281-37.229 16.541l9.934 11.239c9.308-8.227 21.203-12.905 33.492-13.173 11.841-.248 23.098 3.332 32.543 10.384 16.91 12.625 37.724 19.577 58.662 19.577 20.884 0 41.698-6.952 58.608-19.577 9.445-7.052 20.689-10.64 32.542-10.384 27.922.609 50.943 23.808 51.317 51.712.258 19.234-9.939 36.715-26.129 46.092l-3.513-41.568-5.342-1.22c-28.465-6.501-66.625-10.082-107.449-10.082-40.891 0-79.094 3.59-107.572 10.109l-5.343 1.223-3.481 41.557c-16.227-9.38-26.438-26.889-26.161-46.164.146-10.144 3.252-19.977 8.984-28.436l-12.418-8.414c-7.377 10.889-11.376 23.557-11.564 36.634-.391 27.144 15.394 51.568 39.807 62.515l-2.068 24.682c-19.155 22.336-31.558 49.418-36.045 78.193l-25.473 6.322c-30.161 7.486-51.227 34.403-51.227 65.458v88.479h465v-88.47c0-31.06-21.071-57.979-51.24-65.461zm-241.135-343.069h119.875c12.407 0 22.5 10.082 22.5 22.474v59.378h-164.875v-59.378c0-12.392 10.093-22.474 22.5-22.474zm-22.5 105.321v-8.469h45v29.009c-4.291-2.168-8.412-4.697-12.287-7.589-9.693-7.237-20.867-11.635-32.713-12.951zm82.348 29.547c-7.542 0-15.074-1.083-22.348-3.146v-34.871h44.875v34.834c-7.323 2.089-14.915 3.183-22.527 3.183zm49.689-16.596c-3.837 2.864-7.915 5.372-12.162 7.526v-28.946h45v8.452c-11.894 1.297-23.11 5.705-32.838 12.968zm-4.6 290.378-45 25.692-45-25.692v-26.204l43.914 16.586 46.086-17.101zm-90 17.273 45 25.692 45-25.692v56.077h-90zm116.884-241.913v50.62c0 21.538-9.542 41.517-25.91 55.016-8.828-17.015-26.667-28.225-46.357-28.225-19.46 0-37.202 11.028-46.119 27.778-16.036-13.5-25.381-33.312-25.381-54.569v-50.622c21.568-2.719 46.142-4.167 71.883-4.167 25.738.001 50.313 1.449 71.884 4.169zm-158.767 2.184v48.436c0 29.432 14.794 56.569 39.576 72.593l8.427 5.449 2.839-9.625c4.624-15.677 19.288-26.625 35.659-26.625 16.537 0 31.24 11.091 35.756 26.971l2.745 9.652 8.479-5.367c25.226-15.965 40.286-43.272 40.286-73.047v-48.436c4.108.682 8.088 1.41 11.889 2.194l8.878 105.025c2.341 32.747-14.68 54.719-53.566 69.148l-55.123 20.454-53.562-20.23c-38.542-14.557-55.422-36.46-53.127-68.835l8.841-105.539c3.835-.794 7.854-1.529 12.003-2.218zm-35.347 101.183-.454 5.418c-1.475 20.802 3.793 38.675 15.657 53.123 10.477 12.76 25.862 22.855 47.027 30.862v105.22h-52.437v-43.236l33.522-40.191h-58.84c-3.316-12.18-4.995-24.776-4.995-37.522 0-26.159 7.172-51.588 20.52-73.674zm-95.332 121.144c0-24.147 16.384-45.078 39.842-50.899l20.205-5.015c-.15 2.805-.235 5.62-.235 8.443 0 16.115 2.431 32.019 7.225 47.271l1.65 5.251h37.916l-16.478 19.756v48.672h-15.313v-45.953h-15v45.953h-59.812zm435 73.479h-60.054l.054-45.944-15-.018-.054 45.962h-14.946v-48.67l-16.478-19.756h37.915l1.65-5.251c4.794-15.252 7.225-31.157 7.225-47.271 0-2.806-.091-5.607-.238-8.402l20.075 4.979c23.463 5.819 39.851 26.751 39.851 50.902z"/><path d="m215.062 211.813h15v15h-15z"/><path d="m282.5 211.813h15v15h-15z"/><path d="m293 68.5h-15v-15h15zm-30 0h-15v-15h15zm-30 0h-15v-15h15z" fill="#fff"/></g></g></svg>