<svg id="Layer_1" enable-background="new 0 0 511 511" height="512" viewBox="0 0 511 511" width="512" xmlns="http://www.w3.org/2000/svg"><g><path d="m287.5 223.5v32h96c26.51 0 48 21.49 48 48v200h-352v-200c0-26.51 21.49-48 48-48h96v-32" fill="#58575b"/><path d="m335.5 255.5-80 184-80-184" fill="#fff"/><path d="m187.5 267.5-4.727 4.727 11.189 25.734 49.538 49.539 12-12z" fill="#e5ecf5"/><path d="m323.5 267.5-68 68 12 12 49.538-49.539 11.189-25.734z" fill="#e5ecf5"/><path d="m223.985 367.015c15.048 34.612 31.515 72.485 31.515 72.485l31.515-72.485-31.515-31.515z" fill="#93fee6"/><path d="m79.5 479.5h352v24h-352z" fill="#48474a"/><path d="m238.529 294.529h33.941v33.941h-33.941z" fill="#93fee6" transform="matrix(.707 -.707 .707 .707 -145.43 271.902)"/><path d="m247.015 339.015h16.971v16.971h-16.971z" fill="#7fdcc7" transform="matrix(.707 -.707 .707 .707 -170.885 282.446)"/><path d="m287.5 255.5v-32h-64v32l32 32z" fill="#ffdecf"/><path d="m223.5 250.476c10.082 3.257 20.834 5.024 32 5.024 11.166 0 21.918-1.767 32-5.024v-26.976h-64z" fill="#ffcdbe"/><g><path d="m198.529 231.902h33.941v79.196h-33.941z" fill="#48474a" transform="matrix(.707 -.707 .707 .707 -128.861 231.902)"/></g><g><path d="m255.902 254.529h79.196v33.941h-79.196z" fill="#48474a" transform="matrix(.707 -.707 .707 .707 -105.43 288.471)"/></g><path d="m175.5 31.5v32h168c13.255 0 24-10.745 24-24v-32h-168c-13.255 0-24 10.745-24 24z" fill="#58575b"/><path d="m255.5 231.5c-44.183 0-80-35.817-80-80v-88h160v88c0 44.183-35.817 80-80 80z" fill="#ffdecf"/><path d="m255.5 207.5c-44.183 0-80-35.817-80-80v24c0 44.183 35.817 80 80 80 44.183 0 80-35.817 80-80v-24c0 44.183-35.817 80-80 80z" fill="#ffcdbe"/><path d="m335.5 111.5v-48h-48z" fill="#48474a"/><path d="m175.5 111.5v-48h48z" fill="#48474a"/><path d="m335.5 159.5h-160c-8.837 0-16-7.163-16-16v-32c0-8.837 7.163-16 16-16h160c8.837 0 16 7.163 16 16v32c0 8.837-7.163 16-16 16z" fill="#b6e6fa"/><path d="m191.5 143.5h128v16h-128z" fill="#6e91ef"/><path d="m191.5 95.5v64h-16c-8.84 0-16-7.16-16-16v-32c0-8.84 7.16-16 16-16z" fill="#fff"/><path d="m159.5 127.5v16c0 8.84 7.16 16 16 16h16v-16h-16c-8.84 0-16-7.16-16-16z" fill="#e5ecf5"/><path d="m319.5 95.5v64h16c8.84 0 16-7.16 16-16v-32c0-8.84-7.16-16-16-16z" fill="#fff"/><path d="m351.5 127.5v16c0 8.84-7.16 16-16 16h-16v-16h16c8.84 0 16-7.16 16-16z" fill="#e5ecf5"/><g fill="#58575b"><path d="m111.5 439.5h-24c-8.837 0-16-7.163-16-16 0-8.837 7.163-16 16-16h24"/><path d="m111.5 375.5h-24c-8.837 0-16-7.163-16-16 0-8.837 7.163-16 16-16h24"/><path d="m111.5 407.5h-24c-8.837 0-16-7.163-16-16 0-8.837 7.163-16 16-16h24"/><path d="m399.5 439.5h24c8.837 0 16-7.163 16-16 0-8.837-7.163-16-16-16h-24"/><path d="m399.5 375.5h24c8.837 0 16-7.163 16-16 0-8.837-7.163-16-16-16h-24"/><path d="m399.5 407.5h24c8.837 0 16-7.163 16-16 0-8.837-7.163-16-16-16h-24"/></g><g><g><path d="m167.5 448h16v15h-16z" fill="#fff"/></g><g><path d="m199.5 448h16v15h-16z" fill="#fff"/></g></g><g><path d="m111.5 447v-15h-24c-4.687 0-8.5-3.813-8.5-8.5s3.813-8.5 8.5-8.5h24v-15h-24c-4.687 0-8.5-3.813-8.5-8.5s3.813-8.5 8.5-8.5h24v-15h-24c-4.687 0-8.5-3.813-8.5-8.5s3.813-8.5 8.5-8.5h24v-15h-24c-.167 0-.334.002-.5.006v-32.506c0-22.332 18.168-40.5 40.5-40.5h24v-15h-24c-30.603 0-55.5 24.897-55.5 55.5v38.351c-4.902 4.31-8 10.624-8 17.649 0 6.175 2.394 11.802 6.303 16-3.909 4.198-6.303 9.825-6.303 16s2.394 11.802 6.303 16c-3.909 4.198-6.303 9.825-6.303 16 0 12.958 10.542 23.5 23.5 23.5z"/><path d="m440.697 375.5c3.909-4.198 6.303-9.825 6.303-16 0-7.025-3.098-13.339-8-17.649v-38.351c0-30.603-24.897-55.5-55.5-55.5h-44.894l-27.106-27.106-16.5 16.5v-7.801c6.98-3.534 13.511-8.021 19.404-13.388.437-.397.868-.799 1.296-1.205h27.8c8.547 0 15.5-6.953 15.5-15.5v-16c0-.276.224-.5.5-.5h16c8.547 0 15.5-6.953 15.5-15.5v-32c0-8.547-6.953-15.5-15.5-15.5h-16.5v-8.5c0-10.337-6.708-19.136-16-22.273v-18.227h.5c17.369 0 31.5-14.131 31.5-31.5v-39.5h-175.5c-17.369 0-31.5 14.131-31.5 31.5v57.727c-9.292 3.137-16 11.936-16 22.273v8.5h-16.5c-8.547 0-15.5 6.953-15.5 15.5v32c0 8.547 6.953 15.5 15.5 15.5h24v-15h-24c-.276 0-.5-.224-.5-.5v-32c0-.276.224-.5.5-.5h16.5v8.5c0 10.785 7.303 19.896 17.223 22.648 3.241 19.207 12.825 36.805 27.374 50.056 5.893 5.368 12.424 9.854 19.404 13.388v7.801l-16.5-16.5-34.607 34.607 4.296 4.296 86.31 198.514 84.917-195.31h43.083c22.332 0 40.5 18.168 40.5 40.5v32.506c-.166-.003-.333-.006-.5-.006h-24v15h24c4.687 0 8.5 3.813 8.5 8.5s-3.813 8.5-8.5 8.5h-24v15h24c4.687 0 8.5 3.813 8.5 8.5s-3.813 8.5-8.5 8.5h-24v15h24c4.687 0 8.5 3.813 8.5 8.5s-3.813 8.5-8.5 8.5h-24v15h24c.167 0 .334-.002.5-.006v49.006h-49v-176.5h-15v176.5h-209v-176.5h-15v176.5h-49v-32.5h-15v47.5h367v-69.851c4.902-4.31 8-10.624 8-17.649 0-6.175-2.394-11.802-6.303-16 3.909-4.198 6.303-9.825 6.303-16s-2.394-11.802-6.303-16zm-127.825-86.766-28.343 65.189-18.423-18.423zm-57.372 36.16-13.394-13.394 13.394-13.394 13.394 13.394zm69.394-69.394-45.394 45.394-13.394-13.394 45.394-45.394zm50.606-120.5c.276 0 .5.224.5.5v32c0 .276-.224.5-.5.5h-16c-8.547 0-15.5 6.953-15.5 15.5v16c0 .276-.224.5-.5.5h-15.157c6.787-10.176 11.382-21.691 13.434-33.852 9.921-2.752 17.223-11.863 17.223-22.648v-8.5zm-91.106-64 17 17h-91.787l17-17zm27.606 32v49h-113v-49zm32 40.5c0 4.687-3.813 8.5-8.5 8.5h-8.5v-49h8.5c4.687 0 8.5 3.813 8.5 8.5zm-16-55.5h-5.394l-17-17h22.394zm-145-56.5c0-9.098 7.402-16.5 16.5-16.5h160.5v24.5c0 9.098-7.402 16.5-16.5 16.5h-160.5zm22.394 39.5-17 17h-5.394v-17zm-38.394 40.5c0-4.687 3.813-8.5 8.5-8.5h8.5v49h-8.5c-4.687 0-8.5-3.813-8.5-8.5zm17.649 55.5h141.702c-7.11 33.019-36.236 57-70.851 57s-63.74-23.981-70.851-57zm46.351 68.514c7.886 2.296 16.125 3.486 24.5 3.486s16.614-1.19 24.5-3.486v16.879l-24.5 24.5-24.5-24.5zm-31.5 6.592 45.394 45.394-13.394 13.394-45.394-45.394zm45.394 93.394-18.423 18.423-28.343-65.189zm-11.995 33.208 22.601-22.601 22.601 22.601-22.601 51.982z"/><path d="m311.5 352h40v15h-40z"/></g></g></svg>