<svg id="Layer_1" height="512" viewBox="0 0 512 512" width="512" xmlns="http://www.w3.org/2000/svg" data-name="Layer 1"><g fill="#d4e1f4"><path d="m37.644 328.198h154.432v28.284h-154.432z" transform="matrix(.707 -.707 .707 .707 -208.429 181.487)"/><path d="m41.95 422.41a15.475 15.475 0 0 1 21.88-21.89l-20-20a15.475 15.475 0 0 0 -21.88 21.89z"/><path d="m173.04 291.31a15.475 15.475 0 0 1 0-21.88l.88-.88a15.475 15.475 0 0 1 21.851-.027l-19.971-19.973a15.475 15.475 0 0 0 -21.88 0l-.88.88a15.475 15.475 0 0 0 0 21.88z"/></g><path d="m459.16 31.669a59.385 59.385 0 0 0 -40.96 14.077l-240.925 204.228 7.76 9.153 240.923-204.227a47.884 47.884 0 0 1 59.868-1.321l-16.378 16.377a49.884 49.884 0 0 0 -36.479 12.294l-225.015 197.913 7.926 9.011 225.02-197.913a37.836 37.836 0 0 1 15.447-8.2l-223.342 223.339 8.484 8.486 257.336-257.337a6 6 0 0 0 0-8.486 59.406 59.406 0 0 0 -39.665-17.394z" fill="#1ae5be"/><path d="m85.149 474.091a21.475 21.475 0 1 0 30.371-30.37l-2.181-2.181 100.722-100.721 2.18 2.181a21.473 21.473 0 0 0 30.367 0l.88-.878a21.5 21.5 0 0 0 0-30.371l-67.444-67.441a21.473 21.473 0 0 0 -30.368 0l-.879.878a21.5 21.5 0 0 0 0 30.37l2.181 2.181-100.72 100.719-2.181-2.18a21.475 21.475 0 1 0 -30.37 30.37zm72.132-220.418.879-.878a9.476 9.476 0 0 1 13.4 0l67.44 67.444a9.486 9.486 0 0 1 0 13.4l-.88.879a9.475 9.475 0 0 1 -13.4 0l-67.444-67.444a9.487 9.487 0 0 1 .005-13.401zm2.183 32.549 46.111 46.112-100.721 100.721-46.112-46.112zm-133.272 98.541a9.476 9.476 0 0 1 13.4 0l67.443 67.443a9.475 9.475 0 0 1 -13.4 13.4l-67.444-67.443a9.475 9.475 0 0 1 0-13.4z" fill="#0635c9"/><path d="m155.33 325.135a5.983 5.983 0 0 0 4.243-1.758l5.056-5.055a6 6 0 0 0 -8.486-8.486l-5.056 5.057a6 6 0 0 0 4.243 10.242z" fill="#0635c9"/><path d="m145.458 337.493a6 6 0 1 0 -8.484-8.486l-49.417 49.417a6 6 0 1 0 8.484 8.485z" fill="#0635c9"/></svg>