<svg id="icon" height="512" viewBox="0 0 128 128" width="512" xmlns="http://www.w3.org/2000/svg"><path d="m7.753 1-6.753 6.753 8.412 15.165 15.486 8.09 28.687 28.686 6.109-6.109-28.686-28.687-8.09-15.486z" fill="#d9e2e9"/><path d="m53.585 60.694a1 1 0 0 1 -.707-.293l-28.578-28.578-15.351-8.023a.993.993 0 0 1 -.411-.4l-8.412-15.162a1 1 0 0 1 .167-1.192l6.753-6.753a1 1 0 0 1 1.192-.168l15.162 8.412a1 1 0 0 1 .4.412l8.023 15.351 28.577 28.577a1 1 0 0 1 0 1.414l-6.108 6.109a1 1 0 0 1 -.707.294zm-43.444-38.524 15.221 7.951a.99.99 0 0 1 .244.179l27.979 27.98 4.7-4.7-27.985-27.98a1 1 0 0 1 -.18-.244l-7.95-15.22-14.243-7.896-5.687 5.687z" fill="#2f3a5a"/><path d="m39.165 69.929 8.859 8.859 8.881 2.353 44.231 44.231a5.555 5.555 0 0 0 7.856 0l16.381-16.381a5.555 5.555 0 0 0 0-7.856l-44.231-44.23-2.353-8.881-8.859-8.859z" fill="#ef5361"/><path d="m69.932 39.166 8.861 8.861 2.345 8.879 44.233 44.233a5.556 5.556 0 0 1 0 7.858l-7.125 7.125a5.556 5.556 0 0 0 0-7.858l-44.233-44.234-2.345-8.879-8.861-8.861z" fill="#da2a47"/><path d="m105.064 128a6.509 6.509 0 0 1 -4.635-1.92l-44.04-44.04-8.62-2.284a1 1 0 0 1 -.451-.26l-8.859-8.86a1 1 0 0 1 0-1.414l30.764-30.764a1 1 0 0 1 1.414 0l8.863 8.859a.994.994 0 0 1 .26.451l2.283 8.62 44.041 44.041a6.562 6.562 0 0 1 0 9.27l-16.384 16.381a6.509 6.509 0 0 1 -4.636 1.92zm-56.523-50.108 8.62 2.284a1 1 0 0 1 .451.26l44.231 44.231a4.555 4.555 0 0 0 6.441 0l16.381-16.381a4.561 4.561 0 0 0 0-6.442l-44.23-44.232a.994.994 0 0 1 -.26-.451l-2.283-8.62-7.962-7.962-29.351 29.35z" fill="#2f3a5a"/><path d="m56.882 81.119 24.237-24.237" fill="#9297ab"/><path d="m56.883 82.119a1 1 0 0 1 -.707-1.707l24.236-24.237a1 1 0 0 1 1.414 1.414l-24.236 24.237a1 1 0 0 1 -.707.293z" fill="#2f3a5a"/><path d="m48.024 78.789 30.765-30.764" fill="#9297ab"/><path d="m48.024 79.789a1 1 0 0 1 -.707-1.707l30.765-30.765a1 1 0 0 1 1.418 1.414l-30.769 30.769a1 1 0 0 1 -.707.289z" fill="#2f3a5a"/><path d="m72.587 82.748a2.894 2.894 0 0 0 0 4.093l29.913 29.917a2.894 2.894 0 1 0 4.093-4.093l-29.913-29.917a2.894 2.894 0 0 0 -4.093 0z" fill="#da2a47"/><path d="m104.551 118.6a3.867 3.867 0 0 1 -2.753-1.14l-29.918-29.913a3.9 3.9 0 0 1 0-5.507 3.9 3.9 0 0 1 5.507 0l29.913 29.918a3.894 3.894 0 0 1 -2.753 6.647zm-31.257-35.145a1.9 1.9 0 0 0 0 2.679l29.918 29.917a1.94 1.94 0 0 0 2.678 0 1.892 1.892 0 0 0 0-2.679l-29.917-29.917a1.9 1.9 0 0 0 -2.679 0z" fill="#2f3a5a"/><path d="m82.748 72.587a2.894 2.894 0 0 0 0 4.093l29.917 29.92a2.894 2.894 0 1 0 4.093-4.093l-29.918-29.92a2.894 2.894 0 0 0 -4.092 0z" fill="#da2a47"/><path d="m114.711 108.444a3.867 3.867 0 0 1 -2.753-1.14l-29.917-29.917a3.893 3.893 0 0 1 0-5.506 3.987 3.987 0 0 1 5.506 0l29.918 29.919a3.894 3.894 0 0 1 -2.754 6.647zm-29.917-35.704a1.879 1.879 0 0 0 -1.339.555 1.893 1.893 0 0 0 0 2.677l29.917 29.918a1.94 1.94 0 0 0 2.679 0 1.9 1.9 0 0 0 0-2.679l-29.918-29.917a1.879 1.879 0 0 0 -1.339-.554z" fill="#2f3a5a"/></svg>