<svg height="512pt" viewBox="0 -19 512.00095 512" width="512pt" xmlns="http://www.w3.org/2000/svg"><path d="m275.542969 205.015625c-2.148438 0-4.332031-.34375-6.476563-1.078125l-110.332031-37.621094c-2.25-.765625-4.34375-1.929687-6.1875-3.425781l-79.777344-64.90625c-8.59375-6.996094-9.890625-19.628906-2.898437-28.222656 6.992187-8.597657 19.628906-9.894531 28.222656-2.902344l76.988281 62.640625 106.933594 36.460938c10.488281 3.578124 16.089844 14.976562 12.511719 25.464843-2.84375 8.339844-10.636719 13.589844-18.984375 13.589844zm0 0" fill="#f7a388"/><path d="m282.015625 165.960938-47.933594-16.34375-7.140625 39.957031 42.125 14.363281c2.144532.734375 4.328125 1.078125 6.476563 1.078125 8.34375 0 16.140625-5.25 18.984375-13.589844 3.578125-10.488281-2.023438-21.886719-12.511719-25.464843zm0 0" fill="#d43925"/><path d="m477.9375 471.335938-114.027344-50.84375c-1.714844-.765626-3.335937-1.726563-4.828125-2.867188l-97.753906-74.632812c-10.625-8.113282-12.660156-23.296876-4.546875-33.921876 8.109375-10.625 23.296875-12.660156 33.921875-4.550781l95.503906 72.917969 111.441407 49.695312c12.207031 5.441407 17.691406 19.75 12.25 31.957032-5.457032 12.226562-19.777344 17.683594-31.960938 12.246094zm0 0" fill="#ffb69e"/><path d="m319.820312 98.277344c0 24.457031-19.824218 44.28125-44.28125 44.28125-24.453124 0-44.28125-19.824219-44.28125-44.28125 0-24.457032 19.828126-44.28125 44.28125-44.28125 24.457032 0 44.28125 19.824218 44.28125 44.28125zm0 0" fill="#ffb69e"/><path d="m12.097656 469.667969c-11.953125-7.351563-15.679687-23.003907-8.324218-34.957031l53.195312-86.453126-31.242188-74.886718c-5.402343-12.953125.714844-27.832032 13.667969-33.234375 12.953125-5.40625 27.832031.714843 33.238281 13.667969l36.25 86.894531c3.148438 7.542969 2.476563 16.140625-1.808593 23.101562l-60.015625 97.542969c-7.375 11.984375-23.039063 15.660156-34.960938 8.324219zm0 0" fill="#414b82"/><path d="m171.804688 124.25c-2.960938-6.464844-8.207032-11.386719-14.574219-13.683594l-27.597657-10.476562c-27.332031-10.375-57.746093 4.480468-66.371093 32.414062l-37.234375 120.617188 101.449218 33.183594 45.523438-141.308594c2.195312-6.8125 1.765625-14.28125-1.195312-20.746094zm0 0" fill="#64afff"/><path d="m216.480469 45.199219c0 24.960937-20.234375 45.199219-45.199219 45.199219-24.960938 0-45.195312-20.238282-45.195312-45.199219 0-24.960938 20.234374-45.199219 45.195312-45.199219 24.964844 0 45.199219 20.238281 45.199219 45.199219zm0 0" fill="#ffb69e"/><path d="m334.5 87.40625c-5.351562-1.265625-10.804688.167969-15.296875 3.515625-3.199219-19.015625-18.71875-34.214844-38.207031-36.59375-6.769532-.824219-13.269532-.085937-19.234375 1.867187-.316407 2.058594-.5 4.164063-.519531 6.308594-.148438 13.621094 5.875 25.863282 15.460937 34.089844 5.414063 4.640625 6.652344 12.382812 3.132813 18.585938-3.578126 6.304687-5.65625 13.582031-5.738282 21.34375-.023437 2.039062.105469 4.042968.351563 6.011718.003906.003906.007812.007813.011719.011719 15.351562.367187 29.015624-7.101563 37.238281-18.714844 2.535156 4.8125 6.683593 8.390625 11.898437 9.625 10.691406 2.53125 21.796875-5.726562 24.808594-18.441406 3.007812-12.71875-3.214844-25.078125-13.90625-27.609375zm0 0" fill="#80391b"/><path d="m143.503906 455.949219-39.558594-136.945313c-2.113281-7.308594-.664062-15.183594 3.90625-21.261718 4.570313-6.082032 11.738282-9.65625 19.34375-9.65625h94.382813c13.367187 0 24.203125 10.835937 24.203125 24.199218 0 13.367188-10.835938 24.203125-24.203125 24.203125h-62.199219l30.628906 106.03125c3.707032 12.839844-3.695312 26.257813-16.535156 29.964844-12.898437 3.726563-26.277344-3.75-29.96875-16.535156zm0 0" fill="#ffb69e"/><path d="m236.707031 464.582031-100.253906-116.761719-100.699219-62.652343c-11.917968-7.414063-15.566406-23.085938-8.152344-35 7.414063-11.917969 23.085938-15.566407 35-8.152344l104.015626 64.714844c2.195312 1.367187 4.171874 3.0625 5.855468 5.023437l102.796875 119.722656c9.140625 10.648438 7.917969 26.691407-2.726562 35.832032-10.621094 9.121094-26.671875 7.949218-35.835938-2.726563zm0 0" fill="#5f6e9b"/><path d="m311.148438 244.363281 3.445312-49.734375c2.1875-16.375-8.585938-31.328125-24.0625-33.390625l-31.671875-5.113281c-15.476563-2.066406-29.796875 9.53125-31.980469 25.90625l-15.710937 82.558594c-2.105469 11.070312-11.785157 19.082031-23.054688 19.082031h-22.300781c-2.710938 0-4.179688 3.167969-2.429688 5.234375l31.34375 37.074219c28.390626 33.582031 73.300782 48.273437 116.046876 37.960937l40.421874-9.75c4.109376-.992187 5.644532-6.019531 2.796876-9.144531-14.242188-15.640625-46.183594-56.039063-42.84375-100.683594zm0 0" fill="#fa503c"/><path d="m211.898438 259.464844-68.601563-13.988282c-6.820313-1.390624-12.644531-5.792968-15.839844-11.980468l-46.46875-89.972656c-5.828125-11.285157-1.40625-25.160157 9.878907-30.988282 11.285156-5.828125 25.15625-1.40625 30.984374 9.878906l41.421876 80.195313 57.816406 11.785156c12.445312 2.539063 20.476562 14.683594 17.9375 27.128907-2.542969 12.480468-14.714844 20.472656-27.128906 17.941406zm0 0" fill="#ffb69e"/><path d="m142.28125 161.964844-20.429688-39.546875c-5.828124-11.285157-19.699218-15.710938-30.984374-9.878907-11.285157 5.828126-15.707032 19.699219-9.878907 30.984376l20.535157 39.761718zm0 0" fill="#4699f2"/><path d="m275.558594 205.015625c-1.367188 0-2.753906-.140625-4.144532-.433594l-86.5625-18.1875c-3.804687-.800781-7.292968-2.6875-10.042968-5.429687l-57.199219-57.054688c-7.84375-7.828125-7.859375-20.527344-.035156-28.371094 7.824219-7.847656 20.527343-7.863281 28.371093-.039062l52.984376 52.851562 80.738281 16.964844c10.839843 2.28125 17.785156 12.917969 15.503906 23.757813-1.984375 9.453125-10.320313 15.941406-19.613281 15.941406zm0 0" fill="#ffb69e"/><path d="m279.664062 165.316406-33.800781-7.101562-8.386719 39.238281 33.9375 7.132813c1.390626.292968 2.777344.429687 4.144532.429687 9.289062 0 17.628906-6.488281 19.613281-15.9375 2.28125-10.84375-4.664063-21.484375-15.507813-23.761719zm0 0" fill="#d43925"/></svg>