<svg id="Layer_1" enable-background="new 0 0 512 512" height="512" viewBox="0 0 512 512" width="512" xmlns="http://www.w3.org/2000/svg"><g><g><path d="m161.507 119.763v92.921c0 52.187 42.306 94.493 94.493 94.493 52.187 0 94.493-42.306 94.493-94.493v-92.921s-188.982-.001-188.986 0z" fill="#efc397"/><path d="m256 289.177c-52.187 0-94.493-42.306-94.493-94.493v18c0 52.187 42.306 94.493 94.493 94.493 52.187 0 94.493-42.306 94.493-94.493v-18c0 52.187-42.306 94.493-94.493 94.493z" fill="#ecb68c"/><path d="m406.968 504h-301.936v-80.398c0-64.3 52.125-116.425 116.425-116.425h69.086c64.3 0 116.425 52.125 116.425 116.425z" fill="#eef1f3"/><path d="m105.032 486h301.937v18h-301.937z" fill="#dee7ed"/><path d="m161.507 212.684v-37.871c-1.071-.11-2.158-.167-3.258-.167-17.401 0-31.508 14.106-31.508 31.508 0 17.401 14.106 31.508 31.508 31.508 2.202 0 4.35-.227 6.424-.657-2.062-7.761-3.166-15.912-3.166-24.321z" fill="#eaaa7e"/><path d="m353.751 174.646c-1.1 0-2.187.057-3.258.167v37.871c0 8.409-1.104 16.559-3.166 24.32 2.074.43 4.222.657 6.424.657 17.401 0 31.508-14.107 31.508-31.508s-14.106-31.507-31.508-31.507z" fill="#eaaa7e"/><path d="m158.249 219.661c-14.273 0-26.323-9.493-30.196-22.508-.849 2.853-1.312 5.872-1.312 9 0 17.401 14.106 31.508 31.508 31.508 2.202 0 4.35-.227 6.424-.657-1.502-5.656-2.489-11.522-2.918-17.542-1.152.128-2.321.199-3.506.199z" fill="#dfa071"/><path d="m353.751 219.661c-1.185 0-2.354-.071-3.506-.199-.428 6.02-1.416 11.885-2.918 17.542 2.074.43 4.222.657 6.424.657 17.402 0 31.508-14.107 31.508-31.508 0-3.128-.463-6.147-1.312-9-3.873 13.015-15.923 22.508-30.196 22.508z" fill="#dfa071"/><path d="m161.507 119.763s16.373 47.255 94.49 47.255 94.496-47.255 94.496-47.255z" fill="#454d58"/><path d="m338.467 137.763c9.135-9.667 12.026-18 12.026-18h-188.986s2.89 8.333 12.023 18z" fill="#3c434c"/><path d="m175.953 316.408 34.26 84.706 45.787-34.28-45.161-59.17c-12.278 1.11-24.007 4.12-34.886 8.744z" fill="#dee7ed"/><path d="m336.047 316.408-34.26 84.706-45.787-34.28 45.161-59.17c12.278 1.11 24.007 4.12 34.886 8.744z" fill="#dee7ed"/><path d="m256 366.834-28.748 21.523 13.553 29.499h30.39l13.553-29.499z" fill="#606e7a"/><path d="m258.997 387.077 19.598 14.673 6.154-13.393-28.749-21.523-28.748 21.523 6.154 13.393 19.598-14.673c1.776-1.33 4.216-1.33 5.993 0z" fill="#56626b"/><path d="m271.195 417.856 24.829 86.144h-80.048l24.829-86.144z" fill="#454d58"/><path d="m221.164 486-5.188 18h80.048l-5.188-18z" fill="#3c434c"/><path d="m123.849 360.128 2.518 6.107c5.662 13.729 22.228 19.183 34.938 11.501l31.702-19.16-17.055-42.168c-21.413 9.102-39.536 24.434-52.103 43.72z" fill="#f2d266"/><path d="m123.849 360.128 2.518 6.107c5.662 13.729 22.228 19.183 34.938 11.501l31.702-19.16-17.055-42.168c-21.413 9.102-39.536 24.434-52.103 43.72z" fill="#f2d266"/><path d="m134.022 376.226c7.613 5.823 18.39 6.886 27.283 1.511l31.702-19.16-5.85-14.464z" fill="#efc236"/><path d="m388.151 360.128-2.518 6.107c-5.662 13.729-22.228 19.183-34.938 11.501l-31.702-19.16 17.055-42.168c21.413 9.102 39.536 24.434 52.103 43.72z" fill="#f2d266"/><path d="m350.493 119.763 23.254-18.834c9.482-7.68 14.99-19.23 14.99-31.431 0-15.575-8.918-29.812-22.99-36.487-23.081-10.95-62.016-25.011-109.747-25.011s-86.666 14.061-109.748 25.01c-14.072 6.675-22.99 20.912-22.99 36.487 0 12.202 5.508 23.752 14.99 31.431l23.254 18.834h188.987z" fill="#eef1f3"/><path d="m139.283 101.763 22.224 18h188.986l22.224-18z" fill="#dee7ed"/><path d="m256 366.834 45.161-59.17c-3.498-.316-7.038-.487-10.618-.487h-69.086c-3.58 0-7.12.171-10.618.487z" fill="#eaaa7e"/><path d="m288.059 46.983c-1.978 5.639-6.144 10.097-10.229 13.341-1.3-10.906-10.575-19.363-21.83-19.363s-20.53 8.458-21.83 19.363c-4.085-3.244-8.251-7.703-10.229-13.341h-33.313s14.534 42.936 51.028 39.245c3.851 3.318 8.861 5.329 14.344 5.329s10.492-2.011 14.344-5.329c36.494 3.691 51.028-39.245 51.028-39.245z" fill="#f2d266"/><path d="m377.978 376.226c-7.613 5.823-18.39 6.886-27.284 1.511l-31.702-19.16 5.85-14.464z" fill="#efc236"/></g><g><path d="m307.371 300.898c21.197-12.381 37.569-32.16 45.518-55.785.351.009.703.027 1.054.027 21.551 0 39.084-17.533 39.084-39.084 0-20.115-15.275-36.724-34.834-38.849v-44.127l20.515-16.615c11.315-9.164 17.805-22.772 17.805-37.333 0-18.457-10.727-35.472-27.329-43.348-24.797-11.763-64.563-25.784-113.184-25.784-22.689 0-45.605 3.091-68.111 9.185-4.007 1.085-6.375 5.212-5.29 9.218s5.213 6.371 9.217 5.289c21.227-5.748 42.822-8.663 64.184-8.663 45.825 0 83.34 13.233 106.742 24.334 11.385 5.401 18.742 17.086 18.742 29.769 0 10.006-4.46 19.356-12.236 25.654l-21.231 17.196h-41.268c-4.151 0-7.515 3.365-7.515 7.515s3.364 7.515 7.515 7.515h30.987c-9.411 12.505-32.15 32.318-81.738 32.318-29.734 0-54.312-7.351-71.078-21.259-4.63-3.841-8.086-7.706-10.608-11.059h102.378c4.151 0 7.515-3.365 7.515-7.515s-3.364-7.515-7.515-7.515h-112.707l-21.231-17.196c-7.776-6.297-12.236-15.648-12.236-25.654 0-12.683 7.356-24.368 18.741-29.769 4.804-2.278 9.797-4.448 14.836-6.449 3.858-1.531 5.744-5.899 4.212-9.757-1.531-3.858-5.903-5.743-9.756-4.212-5.342 2.12-10.635 4.421-15.733 6.839-16.602 7.876-27.329 24.891-27.329 43.348 0 14.561 6.49 28.168 17.805 37.333l20.515 16.615v44.127c-19.558 2.126-34.834 18.735-34.834 38.849 0 21.551 17.533 39.084 39.084 39.084.351 0 .703-.018 1.054-.027 7.949 23.624 24.321 43.404 45.518 55.785-60.568 8.209-107.408 60.25-107.408 123.033v14.421c0 4.15 3.364 7.515 7.515 7.515s7.515-3.364 7.515-7.515v-14.421c0-17.05 3.933-33.198 10.935-47.589 3.861 5.12 9.213 9.006 15.434 11.053 8.782 2.896 18.425 1.827 26.387-2.99l24.217-14.636 13.932 34.446c1.683 4.478 7.702 6.165 11.471 3.198l9.625-7.206 8.531 18.566-22.539 78.197h-38.234v-58.619c0-4.15-3.364-7.515-7.515-7.515s-7.515 3.365-7.515 7.515v58.619h-44.729v-28.56c0-4.15-3.364-7.515-7.515-7.515s-7.515 3.365-7.515 7.515v36.075c0 4.15 3.364 7.515 7.515 7.515h302.528c4.151 0 7.515-3.365 7.515-7.515v-80.555c0-62.782-46.84-114.823-107.408-123.032zm50.822-88.299v-30.215c11.243 2.014 19.804 11.858 19.804 23.672 0 12.326-9.321 22.511-21.284 23.89.969-5.64 1.48-11.434 1.48-17.347zm-224.19-6.543c0-11.813 8.562-21.658 19.804-23.672v30.215c0 5.912.511 11.707 1.479 17.347-11.962-1.379-21.283-11.564-21.283-23.89zm245.9 155.193c-2.767 10.157-14.833 16.006-24.232 10.776l11.127-26.157c4.823 4.708 9.214 9.855 13.105 15.381zm-113.328 4.332 38.077-49.888c7.502.968 14.764 2.705 21.712 5.121l-27.794 68.721zm19.858-50.789-30.433 39.873-30.433-39.873zm53.756 11.925c5.113 2.618 9.989 5.633 14.597 8.995l-12.128 28.512-14.174-8.566zm-171.352-114.118v-68.84c14.023 14.398 40.224 30.599 87.161 30.599 46.939 0 73.143-16.203 87.166-30.602v68.843c0 48.062-39.102 87.163-87.163 87.163s-87.164-39.101-87.164-87.163zm-25.519 160.52c-5.587-1.731-9.426-6.444-11.221-11.87 3.891-5.526 8.282-10.673 13.105-15.382l11.127 26.157c-4.007 2.099-8.686 2.519-13.011 1.095zm26.025-8.895-12.128-28.512c4.608-3.362 9.484-6.377 14.597-8.995l11.705 28.94zm44.087 25.31-27.794-68.721c6.948-2.416 14.211-4.153 21.712-5.121l38.077 49.888zm42.57-13.096 19.441 14.555-9.034 19.664h-20.814l-9.035-19.664zm-9.569 49.249h19.138l20.546 71.284h-60.23zm153.319 71.284h-44.729v-58.619c0-4.15-3.364-7.515-7.515-7.515s-7.515 3.365-7.515 7.515v58.619h-38.234l-22.539-78.197 8.531-18.566 9.625 7.206c3.768 2.968 9.788 1.28 11.471-3.198l13.932-34.446 24.217 14.636c7.962 4.816 17.605 5.885 26.387 2.99 6.22-2.048 11.572-5.933 15.433-11.053 7.002 14.391 10.935 30.538 10.935 47.589v73.039z"/><path d="m210.122 175.987c-4.151 0-7.515 3.365-7.515 7.515v21.226c0 4.15 3.364 7.515 7.515 7.515s7.515-3.365 7.515-7.515v-21.226c0-4.151-3.364-7.515-7.515-7.515z"/><path d="m301.878 212.242c4.151 0 7.515-3.365 7.515-7.515v-21.226c0-4.15-3.364-7.515-7.515-7.515s-7.515 3.365-7.515 7.515v21.226c0 4.15 3.364 7.515 7.515 7.515z"/><path d="m237.311 93.631c.664 0 1.339-.014 2.015-.041 4.891 3.346 10.703 5.16 16.674 5.16 5.972 0 11.783-1.814 16.674-5.16 31.744 1.285 50.418-28.282 55.944-44.607.776-2.294.399-4.821-1.012-6.789-1.412-1.968-3.685-3.135-6.107-3.135h-33.378c-3.191 0-6.034 2.016-7.091 5.027-.2.568-.437 1.135-.714 1.697-5.361-7.753-14.315-12.758-24.316-12.758s-18.955 5.004-24.317 12.757c-.277-.563-.515-1.129-.714-1.697-1.057-3.011-3.9-5.027-7.091-5.027h-33.378c-2.422 0-4.695 1.167-6.107 3.135-1.411 1.968-1.788 4.495-1.012 6.789 5.41 15.977 23.382 44.652 53.93 44.649zm-18.231-39.543c2.397 4.229 5.871 8.162 10.374 11.738 4.354 3.686 11.638.686 12.135-4.995.868-7.284 7.064-12.776 14.411-12.776s13.543 5.492 14.411 12.776c.496 5.681 7.784 8.681 12.135 4.995 4.503-3.576 7.977-7.508 10.374-11.738h16.793c-1.62 2.86-3.674 6.048-6.187 9.154-9.153 11.319-20.049 16.429-32.398 15.177-2.049-.205-4.098.437-5.66 1.783-2.634 2.268-5.996 3.518-9.468 3.518s-6.834-1.25-9.468-3.518c-1.56-1.348-3.624-1.992-5.661-1.783-12.345 1.249-23.246-3.858-32.398-15.177-2.513-3.106-4.568-6.294-6.187-9.154z"/><path d="m283.482 245.884c2.336-4.795-1.468-10.775-6.83-10.649-3.039 0-5.652 1.805-6.838 4.399-.316.666-3.389 6.505-13.813 6.505s-13.497-5.839-13.813-6.505c-1.186-2.594-3.799-4.399-6.838-4.399-5.363-.126-9.167 5.854-6.83 10.649 2.588 5.847 11.088 15.284 27.482 15.284s24.891-9.437 27.48-15.284z"/></g></g></svg>