<svg id="Layer_3" enable-background="new 0 0 64 64" height="512" viewBox="0 0 64 64" width="512" xmlns="http://www.w3.org/2000/svg"><g><g><path d="m42 62v-15.569c0-2.634-1.718-4.96-4.235-5.735l-8.765-2.696h-14l-8.765 2.697c-2.517.774-4.235 3.1-4.235 5.734v15.569" fill="#2d4d83"/></g><g><path d="m14.5 56c11.179 0 20.252-7.206 20.479-16.16l-5.979-1.84h-14l-8.765 2.697c-2.517.774-4.235 3.1-4.235 5.734v6.126c3.462 2.15 7.789 3.443 12.5 3.443z" fill="#4472b2"/></g><g><path d="m2 55h7v7h-7z" fill="#efbe9a"/></g><g><path d="m35 55h7v7h-7z" fill="#efbe9a"/></g><g><path d="m29 38v3c0 3.866-3.134 7-7 7-3.866 0-7-3.134-7-7v-3" fill="#efbe9a"/></g><g><path d="m9 21c-2.209 0-4 1.791-4 4 0 2.209 1.791 4 4 4" fill="#db9b7c"/></g><g><path d="m35 21c2.209 0 4 1.791 4 4 0 2.209-1.791 4-4 4" fill="#db9b7c"/></g><g><path d="m35 15v12c0 7.18-5.82 13-13 13-7.18 0-13-5.82-13-13v-12c0-7.18 5.82-13 13-13 7.18 0 13 5.82 13 13z" fill="#efbe9a"/></g><g><path d="m32 16v7c0 1.657 1.343 3 3 3v-11" fill="#976947"/></g><g><path d="m12 16v7c0 1.657-1.343 3-3 3v-11" fill="#976947"/></g><g><path d="m9 15c0-7.18 5.82-13 13-13 7.18 0 13 5.82 13 13" fill="#4472b2"/></g><g><path d="m35 16-4 2-3.154-1.051c-1.885-.629-3.859-.949-5.846-.949-1.987 0-3.961.32-5.846.949l-3.154 1.051-4-2v-2l3.149-.787c3.222-.806 6.53-1.213 9.851-1.213 3.321 0 6.629.407 9.851 1.213l3.149.787" fill="#2d4d83"/></g><g><circle cx="47" cy="47" fill="#f5b953" r="15"/></g><g><path d="m37 42h20v14h-20z" fill="#2d4d83"/></g><g><path d="m37 42v10.534c1.112.298 2.284.466 3.5.466 6.72 0 12.186-4.883 12.473-11z" fill="#4472b2"/></g><g><path d="m37 38h20v4h-20z" fill="#4d5d7a"/></g><g><path d="m52 42h-5l4-4h5z" fill="#ebf7fe"/></g><g><path d="m42 42h-1v-4h5z" fill="#ebf7fe"/></g><g><path d="m22 41c-7.72 0-14-6.28-14-14v-12c0-7.72 6.28-14 14-14s14 6.28 14 14v12c0 7.72-6.28 14-14 14zm0-38c-6.617 0-12 5.383-12 12v12c0 6.617 5.383 12 12 12s12-5.383 12-12v-12c0-6.617-5.383-12-12-12z"/></g><g><path d="m9 30c-2.757 0-5-2.243-5-5s2.243-5 5-5v2c-1.654 0-3 1.346-3 3s1.346 3 3 3z"/></g><g><path d="m35 30v-2c1.654 0 3-1.346 3-3s-1.346-3-3-3v-2c2.757 0 5 2.243 5 5s-2.243 5-5 5z"/></g><g><path d="m8 49h2v13h-2z"/></g><g><path d="m34 56h2v6h-2z"/></g><g><path d="m2 54h7v2h-7z"/></g><g><path d="m34.758 14.97-3.149-.787c-6.279-1.57-12.938-1.57-19.217 0l-3.15.787-.484-1.94 3.149-.787c6.594-1.649 13.592-1.649 20.186 0l3.149.787z"/></g><g><path d="m31 19c-.106 0-.213-.017-.316-.051l-3.154-1.051c-3.572-1.191-7.486-1.191-11.059 0l-3.154 1.051c-.253.084-.525.064-.764-.054l-4-2 .895-1.789 3.63 1.815 2.76-.921c3.98-1.327 8.344-1.327 12.324 0l2.761.92 3.63-1.815.895 1.789-4 2c-.141.07-.295.106-.448.106z"/></g><g><path d="m28 12h-2c0-2.958-1.151-5.738-3.242-7.829l-1.465-1.464 1.414-1.414 1.465 1.464c2.469 2.469 3.828 5.751 3.828 9.243z"/></g><g><path d="m18 12h-2c0-3.492 1.359-6.774 3.828-9.243l1.465-1.464 1.414 1.414-1.465 1.464c-2.091 2.091-3.242 4.871-3.242 7.829z"/></g><g><path d="m23 28h-2v-6h-6v-2h7c.553 0 1 .448 1 1z"/></g><g><path d="m22 37c-3.859 0-7-3.14-7-7h2c0 2.757 2.243 5 5 5s5-2.243 5-5h2c0 3.86-3.141 7-7 7z"/></g><g><path d="m30.5 36.154h2v5.231h-2z" transform="matrix(.294 -.956 .956 .294 -14.819 57.474)"/></g><g><path d="m42 63h-40c-.553 0-1-.448-1-1v-15.568c0-3.093 1.985-5.782 4.941-6.69l8.765-2.697.588 1.911-8.765 2.697c-2.111.649-3.529 2.57-3.529 4.779v14.568h40v1c0 .552-.447 1-1 1z"/></g><g><path d="m24 20h5v2h-5z"/></g><g><path d="m26.5 26c-.827 0-1.5-.673-1.5-1.5s.673-1.5 1.5-1.5 1.5.673 1.5 1.5-.673 1.5-1.5 1.5z"/></g><g><path d="m17.5 26c-.827 0-1.5-.673-1.5-1.5s.673-1.5 1.5-1.5 1.5.673 1.5 1.5-.673 1.5-1.5 1.5z"/></g><g><path d="m9 27v-2c1.103 0 2-.897 2-2v-6h2v6c0 2.206-1.794 4-4 4z"/></g><g><path d="m35 27c-2.206 0-4-1.794-4-4v-6h2v6c0 1.103.897 2 2 2z"/></g><g><path d="m22 49c-4.411 0-8-3.589-8-8v-3h2v3c0 3.309 2.691 6 6 6s6-2.691 6-6v-3h2v3c0 4.411-3.589 8-8 8z"/></g><g><path d="m47 63c-8.822 0-16-7.178-16-16s7.178-16 16-16 16 7.178 16 16-7.178 16-16 16zm0-30c-7.72 0-14 6.28-14 14s6.28 14 14 14 14-6.28 14-14-6.28-14-14-14z"/></g><g><path d="m57 57h-20c-.553 0-1-.448-1-1v-14c0-.552.447-1 1-1h20c.553 0 1 .448 1 1v14c0 .552-.447 1-1 1zm-19-2h18v-12h-18z"/></g><g><path d="m58 42h-2v-3h-18v3h-2v-4c0-.552.447-1 1-1h20c.553 0 1 .448 1 1z"/></g><g><path d="m40 38h2v4h-2z"/></g><g><path d="m41.172 39h5.657v2h-5.657z" transform="matrix(.707 -.707 .707 .707 -15.397 42.828)"/></g><g><path d="m46.172 39h5.657v2h-5.657z" transform="matrix(.707 -.707 .707 .707 -13.933 46.364)"/></g><g><path d="m51.172 39h5.657v2h-5.657z" transform="matrix(.707 -.707 .707 .707 -12.468 49.9)"/></g><g><path d="m40 45h2v2h-2z"/></g><g><path d="m44 45h10v2h-10z"/></g><g><path d="m52 49h2v2h-2z"/></g><g><path d="m40 49h10v2h-10z"/></g></g></svg>