<svg height="512pt" viewBox="0 0 512 512" width="512pt" xmlns="http://www.w3.org/2000/svg"><path d="m480.757812 115.554688-365.191406 365.742187c20.460938 20.464844 47.355469 30.703125 74.238282 30.703125 26.894531 0 53.789062-10.238281 74.25-30.703125l216.703124-217.25c40.941407-40.945313 40.941407-107.550781 0-148.492187zm0 0" fill="#ffb64c"/><path d="m395.902344 30.695312c-40.945313-40.925781-107.578125-40.925781-148.492188 0l-216.703125 217.25c-40.941406 40.945313-40.941406 107.550782 0 148.492188zm0 0" fill="#ffd396"/><path d="m492.910156 46.859375c-3.03125-5.320313-6.769531-10.347656-11.230468-14.929687-.359376-.371094-.710938-.738282-1.070313-1.089844-29.089844-29.398438-76.800781-29.398438-105.890625 0l-343.871094 344.410156c-29.609375 29.621094-29.578125 76.921875 0 105.898438 28.953125 29.5625 76.261719 29.640624 105.902344 0l343.859375-344.410157c24.480469-24.21875 28.582031-61.339843 12.300781-89.878906zm0 0" fill="#ff641a"/><path d="m480.609375 136.738281-343.859375 344.410157c-29.640625 29.640624-76.949219 29.5625-105.902344 0l449.761719-450.308594c.359375.351562.710937.71875 1.070313 1.089844 3.769531 3.941406 7.558593 9.019531 11.230468 14.929687 16.28125 28.539063 12.179688 65.660156-12.300781 89.878906zm0 0" fill="#f03800"/><path d="m406 93.5v30h-3c-14.402344 0-25.800781 11.699219-25.800781 25.800781v3.300781c0 30.597657-25.199219 55.796876-56.101563 55.796876h-3c-14.398437 0-25.796875 11.703124-25.796875 25.800781v3.300781c0 30.601562-25.203125 55.800781-55.800781 55.800781h-3.300781c-14.101563 0-25.800781 11.398438-25.800781 25.800781v3c0 30.898438-25.199219 56.097657-55.800782 56.097657h-3.296875c-14.101562 0-25.800781 11.402343-25.800781 25.800781h-30c0-30.898438 25.199219-55.800781 55.800781-55.800781h3.296875c14.101563 0 25.800782-11.699219 25.800782-26.097657v-3c0-30.902343 24.902343-55.800781 55.800781-55.800781h3.300781c14.097656 0 25.800781-11.699219 25.800781-25.800781v-3.300781c0-30.898438 24.898438-55.800781 55.796875-55.800781h3c14.402344 0 26.101563-11.699219 26.101563-25.796876v-3.300781c0-30.601562 24.898437-55.800781 55.800781-55.800781zm0 0" fill="#f2f6fc"/><path d="m406 105.539062v17.960938h-3c-14.402344 0-25.800781 11.699219-25.800781 25.800781v3.300781c0 30.597657-25.199219 55.796876-56.101563 55.796876h-3c-14.398437 0-25.796875 11.703124-25.796875 25.800781v3.300781c0 30.601562-25.203125 55.800781-55.800781 55.800781h-3.300781c-14.101563 0-25.800781 11.398438-25.800781 25.800781v3c0 30.898438-25.199219 56.097657-55.800782 56.097657h-3.296875c-14.101562 0-25.800781 11.402343-25.800781 25.800781h-14.589844zm0 0" fill="#dce1eb"/></svg>