<?xml version="1.0" encoding="iso-8859-1"?>
<!-- Generator: Adobe Illustrator 19.0.0, SVG Export Plug-In . SVG Version: 6.00 Build 0)  -->
<svg version="1.1" id="Capa_1" xmlns="http://www.w3.org/2000/svg" xmlns:xlink="http://www.w3.org/1999/xlink" x="0px" y="0px"
	 viewBox="0 0 512 512" style="enable-background:new 0 0 512 512;" xml:space="preserve">
<path style="fill:#9798BC;" d="M437.149,409.624c-6.745,9.764-17.75,16.129-30.192,16.129s-23.447-6.365-30.191-16.129
	c-6.744,9.764-17.749,16.129-30.191,16.129c-12.442,0-23.448-6.365-30.191-16.129c-6.746,9.764-17.75,16.129-30.192,16.129
	s-23.447-6.365-30.191-16.129c-6.744,9.764-17.75,16.129-30.191,16.129c-12.442,0-23.447-6.365-30.191-16.129
	c-6.744,9.764-17.749,16.129-30.192,16.129s-23.447-6.365-30.191-16.129c-6.745,9.764-17.749,16.129-30.191,16.129
	s-23.447-6.365-30.191-16.129c-6.11,8.845-15.721,14.882-26.723,15.944l38.353,56.618c1.615,2.385,5.292,4.336,8.169,4.336h322.701
	c2.877,0,6.554-1.951,8.169-4.336l38.353-56.618C452.87,424.507,443.259,418.469,437.149,409.624z"/>
<path style="fill:#B2B4CE;" d="M68.842,456.148l17.639,26.039c1.615,2.385,5.292,4.336,8.169,4.336h322.701
	c2.877,0,6.554-1.951,8.169-4.336l17.639-26.039H68.842z"/>
<path style="opacity:0.1;enable-background:new    ;" d="M125.11,482.186l-45.047-66.5c-1.93-1.828-3.686-3.852-5.212-6.063
	c-6.11,8.845-15.721,14.882-26.723,15.944l38.353,56.618c1.615,2.385,5.292,4.336,8.169,4.336h38.629
	C130.401,486.522,126.725,484.571,125.11,482.186z"/>
<path style="fill:#F8C36E;" d="M471.938,357.38C429.061,289.508,348.428,243.773,256,243.773S82.939,289.508,40.061,357.38H471.938z
	"/>
<path style="opacity:0.1;enable-background:new    ;" d="M89.538,357.38c39.004-61.739,109.254-105.155,191.202-112.497
	c-8.139-0.729-16.39-1.111-24.74-1.111c-92.428,0-173.061,45.736-215.939,113.607h49.477V357.38z"/>
<path style="fill:#F6AD38;" d="M504.5,380.721c0-12.837-10.166-23.341-22.591-23.341H30.091c-12.424,0-22.591,10.504-22.591,23.341
	v6.386c0,21.344,16.636,38.646,37.159,38.646c12.442,0,23.447-6.365,30.192-16.129c6.744,9.764,17.749,16.129,30.191,16.129
	s23.447-6.365,30.191-16.129c6.744,9.764,17.749,16.129,30.191,16.129s23.448-6.365,30.192-16.129
	c6.744,9.764,17.749,16.129,30.191,16.129c12.441,0,23.447-6.365,30.191-16.129c6.744,9.764,17.749,16.129,30.191,16.129
	c12.442,0,23.447-6.365,30.192-16.129c6.743,9.764,17.749,16.129,30.191,16.129c12.442,0,23.447-6.365,30.191-16.129
	c6.745,9.764,17.75,16.129,30.191,16.129c12.442,0,23.447-6.365,30.192-16.129c6.744,9.764,17.75,16.129,30.191,16.129
	c20.523,0,37.159-17.302,37.159-38.646v-6.386H504.5z"/>
<ellipse style="fill:#F39600;" cx="256" cy="299.87" rx="13.333" ry="24.733"/>
<g>
	<path style="fill:#995C57;" d="M207.122,277.299c5.207,5.261,0.904,18.139-9.611,28.763c-10.516,10.624-23.261,14.972-28.468,9.711
		s-0.904-18.139,9.611-28.762C189.169,276.386,201.915,272.038,207.122,277.299z"/>
	<path style="fill:#995C57;" d="M305.711,277.299c-5.207,5.261-0.904,18.139,9.611,28.763c10.515,10.624,23.261,14.972,28.468,9.711
		s0.904-18.139-9.612-28.762C323.663,276.386,310.917,272.038,305.711,277.299z"/>
</g>
<g>
	<path style="fill:#F39600;" d="M353.853,256.272c-3.644,6.465,3.878,17.733,16.8,25.169c12.922,7.434,26.351,8.221,29.996,1.756
		c3.643-6.467-3.877-17.734-16.8-25.169C370.927,250.593,357.497,249.806,353.853,256.272z"/>
	<path style="fill:#F39600;" d="M162.858,256.272c3.644,6.465-3.877,17.733-16.799,25.169c-12.922,7.434-26.352,8.221-29.996,1.756
		c-3.644-6.467,3.876-17.734,16.8-25.169C145.784,250.593,159.215,249.806,162.858,256.272z"/>
</g>
<path d="M235.166,299.868c0,18.376,8.957,32.233,20.834,32.233c11.877,0,20.833-13.857,20.833-32.233
	c0-18.375-8.956-32.232-20.833-32.232C244.123,267.636,235.166,281.493,235.166,299.868z M261.833,299.868
	c0,11.014-4.44,16.899-5.833,17.23c-1.394-0.331-5.834-6.216-5.834-17.23c0-11.079,4.494-16.969,5.809-17.234
	C257.339,282.899,261.833,288.789,261.833,299.868z"/>
<path d="M173.324,281.734c-14.058,14.203-18.101,30.736-9.612,39.314c2.887,2.916,6.855,4.458,11.476,4.458
	c8.534,0,18.871-5.297,27.653-14.169c14.058-14.204,18.1-30.738,9.611-39.315c-2.887-2.916-6.855-4.458-11.476-4.458
	C192.442,267.565,182.105,272.862,173.324,281.734z M192.18,300.786c-6.61,6.679-13.442,9.721-16.992,9.721
	c-0.386,0-0.64-0.038-0.789-0.072c-0.595-1.971,1.294-9.772,9.585-18.148c6.611-6.679,13.442-9.722,16.991-9.722
	c0.386,0,0.64,0.038,0.79,0.072C202.36,284.607,200.471,292.409,192.18,300.786z"/>
<path d="M311.856,267.565c-4.621,0-8.589,1.542-11.476,4.458c-8.489,8.576-4.447,25.11,9.611,39.315
	c8.781,8.872,19.118,14.168,27.652,14.169h0.001c4.621,0,8.589-1.542,11.476-4.458c8.489-8.578,4.447-25.111-9.612-39.314
	C330.727,272.862,320.39,267.565,311.856,267.565z M338.433,310.435c-0.149,0.034-0.402,0.072-0.788,0.072l0,0
	c-3.55,0-10.382-3.042-16.992-9.721c-8.291-8.377-10.18-16.179-9.585-18.149c0.149-0.034,0.403-0.072,0.789-0.072
	c3.55,0,10.381,3.042,16.992,9.722C337.139,300.663,339.028,308.464,338.433,310.435z"/>
<path d="M481.909,349.88h-5.901c-9.324-14.19-20.279-27.469-32.776-39.635c-2.968-2.888-7.715-2.826-10.606,0.142
	c-2.889,2.968-2.826,7.716,0.142,10.606c9.256,9.011,17.585,18.679,24.987,28.887H328c-4.142,0-7.5,3.358-7.5,7.5s3.358,7.5,7.5,7.5
	h153.909c8.321,0,15.091,7.106,15.091,15.841v6.386c0,17.174-13.305,31.146-29.659,31.146c-9.465,0-18.445-4.819-24.021-12.892
	c-0.04-0.059-0.089-0.11-0.132-0.168c-2.505-3.688-4.286-7.987-5.067-12.71c-0.677-4.087-4.545-6.847-8.625-6.174
	c-4.086,0.677-6.851,4.538-6.174,8.625c0.836,5.049,2.447,9.778,4.682,14.079c-5.533,5.847-13.115,9.241-21.047,9.241
	c-9.465,0-18.444-4.819-24.02-12.892c-0.092-0.134-0.198-0.254-0.298-0.38c-2.109-3.177-3.688-6.807-4.568-10.781
	c-0.896-4.045-4.906-6.597-8.944-5.7c-4.044,0.896-6.596,4.9-5.7,8.944c0.913,4.124,2.336,8.002,4.187,11.576
	c-5.532,5.842-13.111,9.232-21.039,9.232c-9.465,0-18.445-4.819-24.02-12.891c-0.094-0.136-0.202-0.258-0.303-0.386
	c-2.108-3.175-3.685-6.804-4.566-10.776c-0.896-4.044-4.897-6.596-8.945-5.699c-4.044,0.897-6.596,4.901-5.699,8.945
	c0.914,4.123,2.337,8.001,4.189,11.575c-5.533,5.842-13.112,9.232-21.039,9.232c-9.465,0-18.445-4.819-24.02-12.892
	c-0.091-0.132-0.197-0.251-0.295-0.376c-2.111-3.178-3.69-6.809-4.571-10.785c-0.897-4.043-4.898-6.594-8.945-5.699
	c-4.044,0.896-6.596,4.901-5.699,8.945c0.914,4.123,2.337,8.001,4.188,11.574c-5.532,5.842-13.111,9.232-21.039,9.232
	c-9.465,0-18.445-4.819-24.021-12.892c-0.093-0.135-0.201-0.256-0.302-0.384c-2.108-3.176-3.685-6.805-4.565-10.778
	c-0.896-4.044-4.901-6.599-8.945-5.7c-4.044,0.896-6.596,4.901-5.7,8.945c0.914,4.124,2.337,8.002,4.188,11.576
	c-5.532,5.841-13.111,9.232-21.039,9.232c-7.471,0-14.632-3.013-20.063-8.247c-0.246-0.237-0.491-0.477-0.729-0.722
	c-0.237-0.245-0.47-0.494-0.699-0.747c-0.218-0.241-0.431-0.487-0.643-0.735c-0.233-0.274-0.466-0.548-0.691-0.832
	c-0.173-0.219-0.337-0.446-0.505-0.67c-0.232-0.31-0.468-0.617-0.69-0.938c-0.008-0.011-0.018-0.021-0.025-0.032
	c-2.093-3.031-3.691-6.489-4.638-10.271c-1.006-4.018-5.083-6.457-9.098-5.453c-4.018,1.007-6.46,5.08-5.453,9.098
	c0.913,3.644,2.26,7.073,3.93,10.276c-5.536,5.867-13.131,9.274-21.078,9.274c-7.233,0-14.178-2.822-19.542-7.753h0.011
	c-1.017-0.933-1.972-1.94-2.862-3.011c-0.032-0.039-0.065-0.078-0.097-0.117c-0.39-0.474-0.763-0.962-1.126-1.461
	c-0.064-0.088-0.13-0.174-0.194-0.264c-2.052-2.883-3.647-6.16-4.648-9.734c-1.117-3.989-5.256-6.316-9.245-5.199
	c-3.989,1.117-6.316,5.256-5.199,9.245c0.89,3.175,2.117,6.183,3.603,9.014c-5.536,5.87-13.134,9.279-21.083,9.279
	C28.305,418.253,15,404.281,15,387.107v-6.386c0-8.735,6.769-15.841,15.091-15.841H292c4.142,0,7.5-3.358,7.5-7.5
	s-3.358-7.5-7.5-7.5H54.241c16.164-22.291,36.733-41.762,60.806-57.46c2.989,1.737,6.745,2.654,11.078,2.654
	c7.272,0,15.679-2.533,23.675-7.133c10.979-6.317,18.301-14.617,20.669-22.532c27.131-9.305,56.045-14.137,85.532-14.137
	c31.352,0,62.252,5.575,90.942,16.131c2.923,7.296,9.911,14.749,19.971,20.538c7.995,4.599,16.402,7.132,23.673,7.133
	c0.001,0,0.001,0,0.002,0c3.098,0,5.895-0.476,8.335-1.379c3.599,2.392,7.133,4.872,10.588,7.453
	c3.319,2.478,8.019,1.798,10.498-1.521c2.478-3.318,1.798-8.018-1.52-10.497c-3.158-2.359-6.382-4.635-9.653-6.845
	c1.825-9.961-6.346-22.186-21.247-30.76c-7.995-4.6-16.402-7.133-23.674-7.133c-7.327,0-13.003,2.624-16.109,7.406
	c-29.117-10.161-60.251-15.526-91.806-15.526c-30.315,0-60.069,4.847-88.09,14.177c-3.25-3.921-8.509-6.056-15.113-6.056
	c-7.271,0-15.679,2.534-23.673,7.133c-13.466,7.747-21.44,18.478-21.506,27.823c-29.072,18.811-53.423,42.81-71.628,70.53h-5.898
	C13.498,349.88,0,363.715,0,380.721v6.386c0,25.309,19.823,45.916,44.268,46.135l36.003,53.15c2.994,4.421,9.041,7.63,14.378,7.63
	H344c4.142,0,7.5-3.358,7.5-7.5s-3.358-7.5-7.5-7.5l-249.298,0.001c-0.549-0.049-1.693-0.657-2.012-1.043l-9.709-14.333h74.018
	c4.142,0,7.5-3.358,7.5-7.5s-3.358-7.5-7.5-7.5H72.82l-12.445-18.372c5.326-2.076,10.251-5.184,14.476-9.184
	c8.165,7.732,18.934,12.162,30.191,12.162s22.025-4.429,30.191-12.162c8.166,7.732,18.934,12.162,30.191,12.162
	c11.258,0,22.026-4.429,30.192-12.162c8.165,7.732,18.934,12.162,30.191,12.162c11.257,0,22.026-4.429,30.191-12.162
	c8.165,7.732,18.934,12.162,30.191,12.162c11.256,0,22.025-4.43,30.192-12.162c8.165,7.732,18.933,12.162,30.191,12.162
	c11.257,0,22.026-4.429,30.191-12.162c8.166,7.732,18.935,12.162,30.191,12.162c11.257,0,22.026-4.429,30.192-12.162
	c4.225,4.001,9.15,7.108,14.476,9.185l-12.445,18.372H198c-4.142,0-7.5,3.358-7.5,7.5s3.358,7.5,7.5,7.5h231.02l-9.681,14.292
	c-0.348,0.428-1.492,1.036-1.989,1.083H383c-4.142,0-7.5,3.358-7.5,7.5s3.358,7.5,7.5,7.5h34.351c5.337,0,11.384-3.209,14.378-7.629
	l36.004-53.15C492.177,433.023,512,412.417,512,387.107v-6.386C512,363.715,498.501,349.88,481.909,349.88z M363.915,259.393
	c4.552,0,10.605,1.92,16.194,5.135c10.241,5.892,14.072,12.922,13.971,14.943c-0.394,0.22-1.49,0.603-3.492,0.603h-0.001
	c-4.552,0-10.606-1.92-16.193-5.134c-10.24-5.892-14.072-12.924-13.972-14.943C360.815,259.776,361.912,259.393,363.915,259.393z
	 M136.603,264.528c5.588-3.215,11.642-5.135,16.193-5.135c2.003,0,3.1,0.383,3.493,0.604c0.1,2.02-3.732,9.051-13.971,14.943
	c-5.588,3.215-11.642,5.135-16.194,5.135c-2.003,0-3.1-0.383-3.493-0.603C122.53,277.451,126.361,270.42,136.603,264.528z"/>
<path d="M297.374,83.282h25.882c16.55,0,30.014,13.569,30.014,30.249c0,16.681-13.464,30.251-30.014,30.251H307
	c-4.142,0-7.5,3.358-7.5,7.5s3.358,7.5,7.5,7.5h16.256c24.821,0,45.014-20.299,45.014-45.251c0-24.95-20.193-45.249-45.014-45.249
	h-25.882c-4.142,0-7.5,3.358-7.5,7.5S293.232,83.282,297.374,83.282z"/>
<path d="M209.881,182.911v20.538c0,4.142,3.358,7.5,7.5,7.5s7.5-3.358,7.5-7.5v-20.538c0-13.305,10.736-24.13,23.933-24.13H271
	c4.142,0,7.5-3.358,7.5-7.5s-3.358-7.5-7.5-7.5h-22.186C227.347,143.781,209.881,161.335,209.881,182.911z"/>
<path d="M190.496,112.003H249c4.142,0,7.5-3.358,7.5-7.5s-3.358-7.5-7.5-7.5h-58.504c-17.516,0-31.766-14.361-31.766-32.013
	s14.25-32.013,31.766-32.013H211.5c4.142,0,7.5-3.358,7.5-7.5s-3.358-7.5-7.5-7.5h-21.004c-25.787,0-46.766,21.09-46.766,47.013
	C143.73,90.914,164.709,112.003,190.496,112.003z"/>
<g>
</g>
<g>
</g>
<g>
</g>
<g>
</g>
<g>
</g>
<g>
</g>
<g>
</g>
<g>
</g>
<g>
</g>
<g>
</g>
<g>
</g>
<g>
</g>
<g>
</g>
<g>
</g>
<g>
</g>
</svg>
