<svg id="Layer_1" enable-background="new 0 0 512 512" height="512" viewBox="0 0 512 512" width="512" xmlns="http://www.w3.org/2000/svg"><path d="m388.3 299c-4.9 0-9.1 3.6-9.9 8.4-3.4 22.2-22.5 38.5-45 38.6h-169c-18.2.1-34.7-10.8-41.9-27.6l-5.6-13.3c-1.6-3.7-5.2-6.1-9.2-6.1h-59c3.2 2.3 5.2 6 5.1 9.9.1 33.6 19.7 64.1 50.2 78.2 7.3-7.4 14.9-14.3 29.3-14.3 30.6 0 30.6 31.3 61.2 31.3s30.6-31.3 61.2-31.3 30.6 31.3 61.2 31.3 30.6-31.3 61.2-31.3c7.9-.2 15.7 2.5 21.9 7.5 23.6-16 37.7-42.7 37.7-71.3 0-4.1 2.2-7.9 5.7-10z" fill="#7f3d32"/><path d="m391.6 209h-271.3c-2.4-.1-4.6.8-6.4 2.4-1.7 1.7-2.6 4.1-2.6 6.5 0 5 4 9.1 9 9.1h271.3c2.4-.1 4.7-1.1 6.4-2.9 1.7-1.6 2.6-3.9 2.6-6.2 0-5-4-9-9-8.9z" fill="#99918f"/><path d="m391.7 49h-271.4c-2.4-.1-4.6.8-6.4 2.4-1.7 1.7-2.6 4.1-2.6 6.5 0 5 4 9.1 9 9.1h271.3c2.4-.1 4.7-1.1 6.4-2.9 1.7-1.6 2.7-3.9 2.7-6.2 0-4.9-4-8.9-9-8.9z" fill="#99918f"/><path d="m375.1 67h-251c11.8 46.6 11.8 95.4 0 142h250.9c11.9-46.6 11.9-95.4.1-142z" fill="#c6bebb"/><path d="m262.4 25.5c-3.5-3.5-9.2-3.5-12.7 0-1.7 1.7-2.6 4-2.6 6.4v294.1h18v-294.2c-.1-2.4-1-4.6-2.7-6.3z" fill="#b0b5ca"/><path d="m84 308.9c0-4-1.9-7.7-5.1-9.9h-30c3.2 2.3 5.2 6 5.1 9.9.1 33.6 19.7 64.1 50.2 78.2 3.9-3.9 7.9-7.8 13-10.5-20.9-16.2-33.1-41.2-33.2-67.7z" fill="#662e27"/><g fill="#6994fe"><path d="m439.7 410.1c-17.8 0-26.9-9.3-34.9-17.4-7.3-7.4-13.5-13.8-26.3-13.8s-19.1 6.4-26.3 13.8c-8 8.2-17.1 17.4-34.9 17.4s-26.9-9.3-34.9-17.4c-7.3-7.4-13.5-13.8-26.3-13.8s-19.1 6.4-26.3 13.8c-8 8.2-17.1 17.4-34.9 17.4s-26.9-9.3-34.9-17.4c-7.3-7.4-13.5-13.8-26.3-13.8s-19.1 6.4-26.3 13.8c-8 8.2-17.1 17.4-34.9 17.4s-26.9-9.3-34.9-17.4c-7.3-7.4-13.5-13.8-26.3-13.8-3.3 0-6-2.7-6-6s2.7-6 6-6c17.8 0 26.9 9.3 34.9 17.4 7.3 7.4 13.5 13.8 26.3 13.8s19.1-6.4 26.3-13.8c8-8.2 17.1-17.4 34.9-17.4s26.9 9.3 34.9 17.4c7.3 7.4 13.5 13.8 26.3 13.8s19.1-6.4 26.3-13.8c8-8.2 17.1-17.4 34.9-17.4s26.9 9.3 34.9 17.4c7.3 7.4 13.5 13.8 26.3 13.8s19.1-6.4 26.3-13.8c8-8.2 17.1-17.4 34.9-17.4s26.9 9.3 34.9 17.4c7.3 7.4 13.5 13.8 26.3 13.8s19.1-6.4 26.3-13.8c8-8.2 17.1-17.4 34.9-17.4 3.3 0 6 2.7 6 6s-2.7 6-6 6c-12.8 0-19.1 6.4-26.3 13.8-7.9 8.1-17 17.4-34.9 17.4z"/><path d="m439.7 452.6c-17.8 0-26.9-9.3-34.9-17.4-7.3-7.4-13.5-13.8-26.3-13.8s-19.1 6.4-26.3 13.8c-8 8.2-17.1 17.4-34.9 17.4s-26.9-9.3-34.9-17.4c-7.3-7.4-13.5-13.8-26.3-13.8s-19.1 6.4-26.3 13.8c-8 8.2-17.1 17.4-34.9 17.4s-26.9-9.3-34.9-17.4c-7.3-7.4-13.5-13.8-26.3-13.8s-19.1 6.4-26.3 13.8c-8 8.2-17.1 17.4-34.9 17.4s-26.9-9.3-34.9-17.4c-7.3-7.4-13.5-13.8-26.3-13.8-3.3 0-6-2.7-6-6s2.7-6 6-6c17.8 0 26.9 9.3 34.9 17.4 7.3 7.4 13.5 13.8 26.3 13.8s19.1-6.4 26.3-13.8c8-8.2 17.1-17.4 34.9-17.4s26.9 9.3 34.9 17.4c7.3 7.4 13.5 13.8 26.3 13.8s19.1-6.4 26.3-13.8c8-8.2 17.1-17.4 34.9-17.4s26.9 9.3 34.9 17.4c7.3 7.4 13.5 13.8 26.3 13.8s19.1-6.4 26.3-13.8c8-8.2 17.1-17.4 34.9-17.4s26.9 9.3 34.9 17.4c7.3 7.4 13.5 13.8 26.3 13.8s19.1-6.4 26.3-13.8c8-8.2 17.1-17.4 34.9-17.4 3.3 0 6 2.7 6 6s-2.7 6-6 6c-12.8 0-19.1 6.4-26.3 13.8-7.9 8.2-17 17.4-34.9 17.4z"/><path d="m439.7 495.2c-17.8 0-26.9-9.3-34.9-17.4-7.3-7.4-13.5-13.8-26.3-13.8s-19.1 6.4-26.3 13.8c-8 8.2-17.1 17.4-34.9 17.4s-26.9-9.3-34.9-17.4c-7.3-7.4-13.5-13.8-26.3-13.8s-19.1 6.4-26.3 13.8c-8 8.2-17.1 17.4-34.9 17.4s-26.9-9.3-34.9-17.4c-7.3-7.4-13.5-13.8-26.3-13.8s-19.1 6.4-26.3 13.8c-8 8.2-17.1 17.4-34.9 17.4s-26.9-9.3-34.9-17.4c-7.3-7.4-13.5-13.8-26.3-13.8-3.3 0-6-2.7-6-6s2.7-6 6-6c17.8 0 26.9 9.3 34.9 17.4 7.3 7.4 13.5 13.8 26.3 13.8s19.1-6.4 26.3-13.8c8-8.2 17.1-17.4 34.9-17.4s26.9 9.3 34.9 17.4c7.3 7.4 13.5 13.8 26.3 13.8s19.1-6.4 26.3-13.8c8-8.2 17.1-17.4 34.9-17.4s26.9 9.3 34.9 17.4c7.3 7.4 13.5 13.8 26.3 13.8s19.1-6.4 26.3-13.8c8-8.2 17.1-17.4 34.9-17.4s26.9 9.3 34.9 17.4c7.3 7.4 13.5 13.8 26.3 13.8s19.1-6.4 26.3-13.8c8-8.2 17.1-17.4 34.9-17.4 3.3 0 6 2.7 6 6s-2.7 6-6 6c-12.8 0-19.1 6.4-26.3 13.8-7.9 8.1-17 17.4-34.9 17.4z"/></g><g fill="#f4f8fc"><path d="m286.6 107.6c-3.3 0-6 2.7-6 6v62.8c0 3.3 2.7 6 6 6s6-2.7 6-6v-62.8c0-3.3-2.7-6-6-6z"/><path d="m286.6 85.3c-3.3 0-6 2.7-6 6v3.4c0 3.3 2.7 6 6 6s6-2.7 6-6v-3.4c0-3.3-2.7-6-6-6z"/></g><path d="m380.5 277c-13 0-23.5 10.6-23.5 23.6 0 12.9-10.5 23.4-23.4 23.4h-.1-169c-9.4 0-17.9-5.6-21.6-14.2l-7.8-18.4c-3.7-8.7-12.2-14.3-21.6-14.3h-97.5c.2 11 9.7 20 21 20h5.5c2.3.1 4.5.8 6.4 2h59c4 0 7.6 2.5 9.2 6.2l5.6 13.2c7.1 16.8 23.6 27.7 41.9 27.6h169c22.4 0 41.5-16.4 45-38.6.8-4.9 5-8.4 9.9-8.4h55.4c1.8-1 3.9-1.6 6-1.6 8.2 0 16.4-1.6 24-4.8s14.5-8 20.1-13.9l1.7-1.7h-115.2z" fill="#c79a83"/><path d="m67 297c-11.3 0-20.8-9-21-20h-30c.2 11 9.7 20 21 20h5.5c2.3.1 4.5.8 6.4 2h30c-1.9-1.2-4.1-1.9-6.4-2z" fill="#9e7766"/></svg>