<?xml version="1.0" encoding="iso-8859-1"?>
<!-- Generator: Adobe Illustrator 19.0.0, SVG Export Plug-In . SVG Version: 6.00 Build 0)  -->
<svg version="1.1" id="Capa_1" xmlns="http://www.w3.org/2000/svg" xmlns:xlink="http://www.w3.org/1999/xlink" x="0px" y="0px"
	 viewBox="0 0 512 512" style="enable-background:new 0 0 512 512;" xml:space="preserve">
<polygon style="fill:#FF6243;" points="502,157.494 354.506,157.494 354.506,10 157.494,10 157.494,157.494 10,157.494 10,354.506 
	157.494,354.506 157.494,502 354.506,502 354.506,354.506 502,354.506 "/>
<path style="fill:#FFC477;" d="M305.017,271.277c-2.535-24.835-23.513-44.211-49.017-44.211s-46.482,19.377-49.017,44.211
	c-18.857,6.914-32.313,25.024-32.313,46.277c0,27.214,22.061,49.275,49.275,49.275c12.244,0,23.437-4.476,32.055-11.868
	c8.618,7.392,19.81,11.868,32.055,11.868c27.214,0,49.275-22.061,49.275-49.275C337.33,296.301,323.874,278.191,305.017,271.277z"/>
<path d="M288.055,376.829c-11.413,0-22.541-3.307-32.055-9.428c-9.514,6.121-20.642,9.428-32.055,9.428
	c-32.685,0-59.275-26.591-59.275-59.275c0-22.729,13.152-43.437,33.281-53.282c5.599-27.297,29.574-47.207,58.049-47.207
	s52.45,19.909,58.049,47.207c20.129,9.845,33.281,30.553,33.281,53.282C347.33,350.238,320.739,376.829,288.055,376.829z
	 M256,344.96c2.318,0,4.638,0.803,6.511,2.41c7.111,6.1,16.183,9.459,25.544,9.459c21.656,0,39.275-17.619,39.275-39.275
	c0-16.416-10.35-31.24-25.755-36.888c-3.592-1.317-6.117-4.567-6.506-8.373c-2.05-20.083-18.847-35.227-39.069-35.227
	s-37.02,15.145-39.069,35.227c-0.389,3.806-2.914,7.056-6.506,8.373c-15.405,5.649-25.755,20.472-25.755,36.888
	c0,21.656,17.619,39.275,39.275,39.275c9.361,0,18.433-3.359,25.544-9.459C251.362,345.764,253.682,344.96,256,344.96z"/>
<circle style="fill:#FFC477;" cx="216.56" cy="172.81" r="27.641"/>
<path d="M216.56,210.454c-20.756,0-37.642-16.886-37.642-37.642c0-20.755,16.886-37.641,37.642-37.641s37.642,16.886,37.642,37.641
	C254.201,193.568,237.315,210.454,216.56,210.454z M216.56,155.171c-9.728,0-17.642,7.914-17.642,17.641s7.914,17.642,17.642,17.642
	c9.727,0,17.642-7.914,17.642-17.642C234.201,163.085,226.287,155.171,216.56,155.171z"/>
<circle style="fill:#FFC477;" cx="295.44" cy="172.81" r="27.641"/>
<path d="M295.44,210.454c-20.756,0-37.642-16.886-37.642-37.642c0-20.755,16.886-37.641,37.642-37.641s37.642,16.886,37.642,37.641
	C333.082,193.568,316.196,210.454,295.44,210.454z M295.44,155.171c-9.728,0-17.642,7.914-17.642,17.641s7.914,17.642,17.642,17.642
	s17.642-7.914,17.642-17.642C313.082,163.085,305.168,155.171,295.44,155.171z"/>
<circle style="fill:#FFC477;" cx="344.94" cy="231.53" r="23.19"/>
<path d="M344.935,264.722c-18.303,0-33.193-14.891-33.193-33.193c0-18.303,14.891-33.193,33.193-33.193
	c18.303,0,33.193,14.89,33.193,33.193C378.128,249.831,363.237,264.722,344.935,264.722z M344.935,218.335
	c-7.274,0-13.193,5.919-13.193,13.193c0,7.275,5.919,13.193,13.193,13.193s13.193-5.919,13.193-13.193
	C358.128,224.254,352.209,218.335,344.935,218.335z"/>
<circle style="fill:#FFC477;" cx="167.06" cy="231.53" r="23.19"/>
<path d="M167.065,264.722c-18.303,0-33.193-14.891-33.193-33.193c0-18.303,14.891-33.193,33.193-33.193
	c18.303,0,33.193,14.89,33.193,33.193C200.259,249.831,185.368,264.722,167.065,264.722z M167.065,218.335
	c-7.274,0-13.193,5.919-13.193,13.193c0,7.275,5.919,13.193,13.193,13.193s13.193-5.919,13.193-13.193
	C180.259,224.254,174.34,218.335,167.065,218.335z"/>
<path d="M318.29,466c-0.65,0-1.311-0.07-1.96-0.2c-0.63-0.12-1.261-0.32-1.87-0.57c-0.601-0.25-1.18-0.56-1.72-0.92
	c-0.551-0.36-1.061-0.78-1.521-1.24s-0.88-0.97-1.25-1.52c-0.36-0.54-0.67-1.12-0.92-1.72c-0.25-0.61-0.44-1.24-0.57-1.88
	s-0.189-1.3-0.189-1.95c0-0.65,0.06-1.31,0.189-1.95c0.13-0.64,0.32-1.27,0.57-1.87c0.25-0.61,0.56-1.19,0.92-1.73
	c0.37-0.55,0.79-1.06,1.25-1.52s0.97-0.88,1.521-1.24c0.54-0.36,1.119-0.67,1.72-0.92c0.609-0.25,1.24-0.44,1.87-0.57
	c1.29-0.26,2.62-0.26,3.91,0c0.64,0.13,1.27,0.32,1.869,0.57c0.61,0.25,1.19,0.56,1.73,0.92c0.55,0.36,1.06,0.78,1.52,1.24
	s0.881,0.97,1.24,1.52c0.36,0.54,0.67,1.12,0.92,1.73c0.25,0.6,0.44,1.23,0.57,1.87c0.13,0.64,0.2,1.3,0.2,1.95
	c0,0.65-0.07,1.31-0.2,1.95s-0.32,1.27-0.57,1.88c-0.25,0.6-0.56,1.18-0.92,1.72c-0.359,0.55-0.78,1.06-1.24,1.52
	s-0.97,0.88-1.52,1.24c-0.54,0.36-1.12,0.67-1.73,0.92c-0.6,0.25-1.229,0.45-1.869,0.57C319.6,465.93,318.94,466,318.29,466z"/>
<path d="M193.71,66c-0.65,0-1.311-0.07-1.95-0.2c-0.64-0.13-1.27-0.32-1.87-0.57c-0.609-0.25-1.189-0.56-1.729-0.92
	c-0.551-0.36-1.061-0.78-1.521-1.24c-1.859-1.86-2.93-4.44-2.93-7.07c0-0.65,0.07-1.31,0.2-1.96c0.13-0.63,0.319-1.26,0.569-1.87
	c0.25-0.6,0.56-1.18,0.92-1.72c0.36-0.55,0.78-1.06,1.24-1.52s0.97-0.88,1.521-1.24c0.54-0.37,1.12-0.67,1.729-0.92
	c0.601-0.25,1.23-0.45,1.87-0.57c1.29-0.26,2.62-0.26,3.91,0c0.63,0.12,1.26,0.32,1.87,0.57c0.6,0.25,1.18,0.55,1.72,0.92
	c0.55,0.36,1.06,0.78,1.521,1.24c1.869,1.86,2.93,4.44,2.93,7.07s-1.061,5.21-2.93,7.07c-0.461,0.46-0.971,0.88-1.521,1.24
	c-0.54,0.36-1.12,0.67-1.72,0.92c-0.61,0.25-1.24,0.44-1.87,0.57C195.02,65.93,194.359,66,193.71,66z"/>
<path d="M56,328.29c-0.65,0-1.311-0.07-1.95-0.2c-0.64-0.13-1.27-0.32-1.88-0.57c-0.601-0.25-1.18-0.56-1.72-0.92
	c-0.551-0.36-1.061-0.78-1.521-1.24s-0.88-0.97-1.24-1.52c-0.37-0.54-0.67-1.12-0.92-1.73c-0.25-0.6-0.45-1.23-0.58-1.87
	c-0.13-0.64-0.189-1.3-0.189-1.95c0-0.65,0.06-1.31,0.189-1.96c0.13-0.63,0.33-1.26,0.58-1.87c0.25-0.6,0.55-1.18,0.92-1.72
	c0.36-0.55,0.78-1.06,1.24-1.52c0.46-0.46,0.97-0.88,1.521-1.25c0.54-0.36,1.119-0.67,1.72-0.91c0.61-0.25,1.24-0.45,1.88-0.58
	c1.29-0.25,2.61-0.26,3.9,0c0.64,0.13,1.27,0.33,1.869,0.58c0.61,0.24,1.19,0.55,1.73,0.91c0.55,0.37,1.06,0.79,1.52,1.25
	c0.461,0.46,0.881,0.97,1.24,1.52c0.36,0.54,0.67,1.12,0.92,1.72c0.25,0.61,0.44,1.24,0.57,1.87c0.13,0.65,0.2,1.31,0.2,1.96
	s-0.07,1.31-0.2,1.95s-0.32,1.27-0.57,1.87c-0.25,0.61-0.56,1.19-0.92,1.73c-0.359,0.55-0.779,1.06-1.24,1.52
	c-0.46,0.46-0.97,0.88-1.52,1.24c-0.54,0.36-1.12,0.67-1.73,0.92c-0.6,0.25-1.229,0.44-1.869,0.57
	C57.31,328.22,56.649,328.29,56,328.29z"/>
<path d="M456,193.71c-0.65,0-1.31-0.07-1.95-0.19c-0.64-0.13-1.27-0.33-1.87-0.58c-0.61-0.25-1.189-0.55-1.729-0.91
	c-0.551-0.37-1.061-0.79-1.521-1.25s-0.88-0.97-1.24-1.52c-0.359-0.54-0.67-1.12-0.92-1.72c-0.25-0.61-0.45-1.24-0.569-1.87
	c-0.131-0.65-0.2-1.31-0.2-1.96c0-0.65,0.069-1.31,0.2-1.95c0.119-0.64,0.319-1.27,0.569-1.87c0.25-0.61,0.55-1.19,0.92-1.73
	c0.36-0.55,0.78-1.06,1.24-1.52s0.97-0.88,1.521-1.24c0.54-0.36,1.119-0.67,1.729-0.92c0.601-0.25,1.23-0.44,1.87-0.57
	c1.29-0.26,2.62-0.26,3.9,0c0.64,0.13,1.27,0.32,1.869,0.57c0.61,0.25,1.19,0.56,1.73,0.92c0.55,0.36,1.06,0.78,1.52,1.24
	c0.461,0.46,0.881,0.97,1.24,1.52c0.37,0.54,0.67,1.12,0.92,1.73c0.25,0.6,0.45,1.23,0.57,1.87c0.13,0.64,0.2,1.3,0.2,1.95
	s-0.07,1.31-0.2,1.96c-0.12,0.63-0.32,1.26-0.57,1.87c-0.25,0.6-0.56,1.18-0.92,1.72c-0.359,0.55-0.779,1.06-1.24,1.52
	c-0.46,0.46-0.97,0.88-1.52,1.25c-0.54,0.36-1.12,0.66-1.73,0.91c-0.6,0.25-1.229,0.45-1.869,0.58
	C457.31,193.64,456.649,193.71,456,193.71z"/>
<path d="M502,147.494H364.507V10c0-5.523-4.478-10-10-10H157.494c-5.522,0-10,4.477-10,10v137.494H10c-5.523,0-10,4.477-10,10
	v197.013c0,5.523,4.477,10,10,10h137.494V502c0,5.523,4.478,10,10,10h197.013c5.522,0,10-4.477,10-10V364.506H502
	c5.522,0,10-4.477,10-10V157.494C512,151.971,507.522,147.494,502,147.494z M492,344.506h-25.999V222.25c0-5.523-4.478-10-10-10
	c-5.523,0-10,4.477-10,10v122.256h-91.494c-5.522,0-10,4.477-10,10V492H167.494v-25.999H279.75c5.522,0,10-4.477,10-10
	s-4.478-10-10-10H167.494v-91.495c0-5.523-4.477-10-10-10H20V167.494h25.999V279.75c0,5.523,4.478,10,10,10s10-4.477,10-10V167.494
	h91.495c5.523,0,10-4.477,10-10V20h177.013v25.999H232.25c-5.523,0-10,4.477-10,10s4.477,10,10,10h112.257v91.495
	c0,5.523,4.478,10,10,10H492V344.506z"/>
<g>
</g>
<g>
</g>
<g>
</g>
<g>
</g>
<g>
</g>
<g>
</g>
<g>
</g>
<g>
</g>
<g>
</g>
<g>
</g>
<g>
</g>
<g>
</g>
<g>
</g>
<g>
</g>
<g>
</g>
</svg>
