<svg height="512" viewBox="0 0 512 512" width="512" xmlns="http://www.w3.org/2000/svg" xmlns:xlink="http://www.w3.org/1999/xlink"><linearGradient id="a" gradientUnits="userSpaceOnUse" x1="5.919" x2="503.259" y1="506.081" y2="8.741" data-name="New Gradient Swatch 1"><stop offset="0" stop-color="#003f8a"/><stop offset=".518" stop-color="#00d7df"/><stop offset="1" stop-color="#006df0"/></linearGradient><linearGradient id="c" x1="-95.486" x2="401.854" xlink:href="#a" y1="404.676" y2="-92.664"/><g><path d="m431.362 80.638a248 248 0 1 0 -350.724 350.724 248 248 0 1 0 350.724-350.724zm-11.313 339.411a232 232 0 0 1 -328.1-328.1 232 232 0 0 1 328.1 328.1z" fill="url(#a)"/><path d="m256 48c-114.691 0-208 93.309-208 208s93.309 208 208 208 208-93.309 208-208-93.309-208-208-208zm0 400c-105.869 0-192-86.131-192-192s86.131-192 192-192 192 86.131 192 192-86.131 192-192 192z" fill="url(#a)"/><path d="m264 88a8 8 0 0 0 -8-8 176.049 176.049 0 0 0 -162.775 108.95 8 8 0 1 0 14.792 6.1 160.05 160.05 0 0 1 147.983-99.05 8 8 0 0 0 8-8z" fill="url(#c)"/><path d="m320 176h-128a16.019 16.019 0 0 0 -16 16v128a16.019 16.019 0 0 0 16 16h128a16.019 16.019 0 0 0 16-16v-128a16.019 16.019 0 0 0 -16-16zm0 144h-128v-128h128l.01 128z" fill="url(#a)"/></g></svg>