<?xml version="1.0" encoding="iso-8859-1"?>
<!-- Generator: Adobe Illustrator 19.0.0, SVG Export Plug-In . SVG Version: 6.00 Build 0)  -->
<svg version="1.1" id="Capa_1" xmlns="http://www.w3.org/2000/svg" xmlns:xlink="http://www.w3.org/1999/xlink" x="0px" y="0px"
	 viewBox="0 0 384 384" style="enable-background:new 0 0 384 384;" xml:space="preserve">
<polygon style="fill:#83CFDF;" points="176,72.003 176,312.003 63.76,232.003 72,232.003 72,152.003 63.76,152.003 "/>
<polygon style="fill:#E16F47;" points="72,152.003 72,232.003 63.76,232.003 16,232.003 16,152.003 63.76,152.003 "/>
<g>
	<path style="fill:#1C3252;" d="M16,248.003h42.64l108.072,77.024c2.768,1.976,6.024,2.976,9.288,2.976
		c2.504,0,5.024-0.584,7.328-1.776c5.328-2.744,8.672-8.232,8.672-14.224v-240c0-5.992-3.344-11.48-8.672-14.224
		s-11.728-2.296-16.616,1.192L58.64,136.003H16c-8.832,0-16,7.168-16,16v80C0,240.835,7.168,248.003,16,248.003z M160,280.955
		l-72-51.32v-75.264l72-51.32V280.955z M32,168.003h24v48H32V168.003z"/>
	<path style="fill:#1C3252;" d="M228.648,246.955c3.128,3.152,7.232,4.728,11.352,4.728c4.08,0,8.152-1.544,11.272-4.648
		c14.856-14.752,23.048-34.304,23.048-55.032s-8.184-40.28-23.048-55.032c-6.28-6.232-16.408-6.184-22.624,0.08
		c-6.224,6.272-6.192,16.4,0.08,22.632c8.768,8.696,13.592,20.176,13.592,32.328s-4.832,23.624-13.592,32.328
		C222.456,230.555,222.424,240.683,228.648,246.955z"/>
	<path style="fill:#1C3252;" d="M297.2,192.003c0,26.576-10.544,51.552-29.688,70.336c-6.312,6.192-6.408,16.32-0.216,22.632
		c3.136,3.192,7.272,4.792,11.424,4.792c4.048,0,8.096-1.52,11.2-4.576c25.328-24.856,39.28-57.952,39.28-93.184
		s-13.952-68.328-39.28-93.184c-6.296-6.184-16.44-6.104-22.624,0.216c-6.184,6.312-6.096,16.44,0.216,22.632
		C286.656,140.451,297.2,165.427,297.2,192.003z"/>
	<path style="fill:#1C3252;" d="M306.128,60.779c-6.2,6.296-6.128,16.424,0.168,22.632C335.768,112.427,352,150.995,352,192.003
		s-16.232,79.576-45.704,108.6c-6.296,6.2-6.376,16.336-0.168,22.632c3.128,3.176,7.264,4.768,11.392,4.768
		c4.056,0,8.112-1.528,11.224-4.6c35.632-35.08,55.256-81.744,55.256-131.4s-19.624-96.32-55.248-131.4
		C322.456,54.411,312.328,54.483,306.128,60.779z"/>
</g>
<g>
</g>
<g>
</g>
<g>
</g>
<g>
</g>
<g>
</g>
<g>
</g>
<g>
</g>
<g>
</g>
<g>
</g>
<g>
</g>
<g>
</g>
<g>
</g>
<g>
</g>
<g>
</g>
<g>
</g>
</svg>
